<?xml version="1.0" encoding="UTF-8" standalone="no"?>
<!-- Created with Inkscape (http://www.inkscape.org/) -->
<svg xmlns:dc="http://purl.org/dc/elements/1.1/" xmlns:cc="http://creativecommons.org/ns#" xmlns:rdf="http://www.w3.org/1999/02/22-rdf-syntax-ns#" xmlns:svg="http://www.w3.org/2000/svg" xmlns="http://www.w3.org/2000/svg" xmlns:sodipodi="http://sodipodi.sourceforge.net/DTD/sodipodi-0.dtd" xmlns:inkscape="http://www.inkscape.org/namespaces/inkscape" width="72.831322mm" height="89.18222mm" viewBox="0 0 258.06374 315.99999" id="svg2" version="1.1" inkscape:version="0.91 r13725" sodipodi:docname="other-linux-logo.svg" inkscape:export-filename="/home/raphael/Documents/WORK/EUX/Ecogex/linux-logo/img/cool-linux-logo.png" inkscape:export-xdpi="348.75" inkscape:export-ydpi="348.75">
  <defs id="defs4"/>
  <sodipodi:namedview id="base" pagecolor="#ffffff" bordercolor="#666666" borderopacity="1.0" inkscape:pageopacity="0.0" inkscape:pageshadow="2" inkscape:zoom="1.4142136" inkscape:cx="58.116364" inkscape:cy="152.96811" inkscape:document-units="px" inkscape:current-layer="layer1" showgrid="false" inkscape:snap-global="true" fit-margin-top="0" fit-margin-left="0" fit-margin-right="0" fit-margin-bottom="0" inkscape:window-width="1600" inkscape:window-height="871" inkscape:window-x="0" inkscape:window-y="1020" inkscape:window-maximized="1" inkscape:object-paths="true" inkscape:snap-intersection-paths="true" inkscape:object-nodes="true" inkscape:snap-smooth-nodes="true" inkscape:snap-bbox="true" inkscape:bbox-nodes="true" inkscape:snap-bbox-edge-midpoints="true" inkscape:snap-bbox-midpoints="true" inkscape:bbox-paths="true" inkscape:snap-page="true"/>
  <metadata id="metadata7">
    <rdf:RDF>
      <cc:Work rdf:about="">
        <dc:format>image/svg+xml</dc:format>
        <dc:type rdf:resource="http://purl.org/dc/dcmitype/StillImage"/>
        <dc:title/>
      </cc:Work>
    </rdf:RDF>
  </metadata>
  <g inkscape:label="Calque 1" inkscape:groupmode="layer" id="layer1" transform="translate(547.84455,615.35352)">
    <circle style="color:#000000;clip-rule:nonzero;display:inline;overflow:visible;visibility:visible;opacity:1;isolation:auto;mix-blend-mode:normal;color-interpolation:sRGB;color-interpolation-filters:linearRGB;solid-color:#000000;solid-opacity:1;fill:#ffffff;fill-opacity:1;fill-rule:nonzero;stroke:none;stroke-width:0.375;stroke-linecap:butt;stroke-linejoin:miter;stroke-miterlimit:1;stroke-dasharray:none;stroke-dashoffset:0;stroke-opacity:1;color-rendering:auto;image-rendering:auto;shape-rendering:auto;text-rendering:auto;enable-background:accumulate" id="path4143" cy="-542.26514" cx="-453.55847" r="0"/>
    <g id="g4768" transform="translate(-6.9308024,-10)">
      <g id="g4763"/>
    </g>
    <path style="color:#000000;clip-rule:nonzero;display:inline;overflow:visible;visibility:visible;opacity:1;isolation:auto;mix-blend-mode:normal;color-interpolation:sRGB;color-interpolation-filters:linearRGB;solid-color:#000000;solid-opacity:1;fill:#000000;fill-opacity:1;fill-rule:nonzero;stroke:none;stroke-width:0.375;stroke-linecap:butt;stroke-linejoin:miter;stroke-miterlimit:1;stroke-dasharray:none;stroke-dashoffset:0;stroke-opacity:1;color-rendering:auto;image-rendering:auto;shape-rendering:auto;text-rendering:auto;enable-background:accumulate" d="M 125.74805,0.11132812 C 101.89135,0.84554299 77.621307,6.1455326 61.273438,28.787109 43.423167,53.509489 48.364681,75.775672 47.650391,83.632812 46.936111,91.489964 -6.4565694,182.94416 0.65039062,196 c 3.97158998,7.296 21.64286038,-4.35714 22.00000038,6 0.35715,10.35715 -17.2706485,114 105.462889,114 0.31762,0 0.61806,-10e-6 0.91504,-10e-6 0.31871,4.1e-4 0.6206,-0.003 0.92285,10e-6 122.73354,0 105.10379,-103.64285 105.46094,-114 0.35714,-10.35714 18.02841,1.296 22,-6 7.10696,-13.05584 -46.28572,-104.510036 -47,-112.367188 -0.71429,-7.85714 4.22722,-30.123323 -13.62305,-54.845703 C 180.44073,6.1448938 156.1718,0.84335214 132.31445,0.109375 c -1.24097,0 -2.17231,-0.009296 -3.2832,-0.0093812 -1.04431,-8.002e-5 -2.273,0.0089705 -3.2832,0.01133432 z" transform="translate(-547.84455,-615.35352)" id="path4141" inkscape:connector-curvature="0" sodipodi:nodetypes="csssscscsssscsc"/>
    <path style="color:#000000;clip-rule:nonzero;display:inline;overflow:visible;visibility:visible;opacity:1;isolation:auto;mix-blend-mode:normal;color-interpolation:sRGB;color-interpolation-filters:linearRGB;solid-color:#000000;solid-opacity:1;fill:#ffffff;fill-opacity:1;fill-rule:nonzero;stroke:none;stroke-width:0.375;stroke-linecap:butt;stroke-linejoin:miter;stroke-miterlimit:1;stroke-dasharray:none;stroke-dashoffset:0;stroke-opacity:1;color-rendering:auto;image-rendering:auto;shape-rendering:auto;text-rendering:auto;enable-background:accumulate" d="m -458.8133,-558.8125 c 6.48935,0 11.75,5.26065 11.75,11.75 0,6.48935 -5.26065,11.75 -11.75,11.75 -6.48935,0 -11.75,-5.26065 -11.75,-11.75 0,-6.48935 5.26065,-11.75 11.75,-11.75 z" id="path4160"/>
    <path style="color:#000000;clip-rule:nonzero;display:inline;overflow:visible;visibility:visible;opacity:1;isolation:auto;mix-blend-mode:normal;color-interpolation:sRGB;color-interpolation-filters:linearRGB;solid-color:#000000;solid-opacity:1;fill:#ffffff;fill-opacity:1;fill-rule:nonzero;stroke:none;stroke-width:0.375;stroke-linecap:butt;stroke-linejoin:miter;stroke-miterlimit:1;stroke-dasharray:none;stroke-dashoffset:0;stroke-opacity:1;color-rendering:auto;image-rendering:auto;shape-rendering:auto;text-rendering:auto;enable-background:accumulate" d="m -378.8133,-558.8125 c 6.48935,0 11.75,5.26065 11.75,11.75 0,6.48935 -5.26065,11.75 -11.75,11.75 -6.48935,0 -11.75,-5.26065 -11.75,-11.75 0,-6.48935 5.26065,-11.75 11.75,-11.75 z" id="path4158"/>
    <path style="color:#000000;clip-rule:nonzero;display:inline;overflow:visible;visibility:visible;opacity:1;isolation:auto;mix-blend-mode:normal;color-interpolation:sRGB;color-interpolation-filters:linearRGB;solid-color:#000000;solid-opacity:1;fill:#ffffff;fill-opacity:1;fill-rule:nonzero;stroke:none;stroke-width:0.375;stroke-linecap:butt;stroke-linejoin:miter;stroke-miterlimit:1;stroke-dasharray:none;stroke-dashoffset:0;stroke-opacity:1;color-rendering:auto;image-rendering:auto;shape-rendering:auto;text-rendering:auto;enable-background:accumulate" d="m -466.35822,-505.45899 c 12.06973,-0.3885 34.84981,17.07446 45.23437,20.51758 1.10934,0.29725 1.51025,0.53909 2.31055,0.53909 0.8003,0 1.26753,-0.25961 2.31056,-0.53909 10.7553,-3.56494 34.81066,-22.17441 46.48827,-20.40625 12.90824,1.95449 2.20725,21.32634 7.70703,35.56836 13.84327,35.84805 32.44582,91.38243 12.58984,123.70898 -6.17305,10.05004 -20.51594,27.29776 -65.88672,27.86719 -1.07119,0.007 -2.11717,0.0198 -3.20898,0.0215 -1.09244,-0.002 -2.13909,-0.0144 -3.21094,-0.0215 -45.3685,-0.57012 -59.70988,-17.81736 -65.88281,-27.86719 -19.85598,-32.32655 -1.25343,-87.86093 12.58984,-123.70898 5.49978,-14.24202 -5.2012,-33.61387 7.70704,-35.56836 0.40338,-0.0611 0.82008,-0.0974 1.25195,-0.11133 z" id="path4139"/>
  </g>
</svg>