<?xml version="1.0" encoding="UTF-8" standalone="no"?>
<!-- Created with Inkscape (http://www.inkscape.org/) -->

<svg
   xmlns:dc="http://purl.org/dc/elements/1.1/"
   xmlns:cc="http://creativecommons.org/ns#"
   xmlns:rdf="http://www.w3.org/1999/02/22-rdf-syntax-ns#"
   xmlns:svg="http://www.w3.org/2000/svg"
   xmlns="http://www.w3.org/2000/svg"
   xmlns:xlink="http://www.w3.org/1999/xlink"
   xmlns:sodipodi="http://sodipodi.sourceforge.net/DTD/sodipodi-0.dtd"
   xmlns:inkscape="http://www.inkscape.org/namespaces/inkscape"
   width="630"
   height="730"
   id="svg27450"
   version="1.1"
   inkscape:version="0.91 r13725"
   sodipodi:docname="Classic_flat_look_3D.svg"
   inkscape:export-filename="./tux-large.png"
   inkscape:export-xdpi="300"
   inkscape:export-ydpi="300">
  <title
     id="title20046">Tux</title>
  <sodipodi:namedview
     id="base"
     pagecolor="#ffffff"
     bordercolor="#666666"
     borderopacity="0.41176471"
     inkscape:pageopacity="0.0"
     inkscape:pageshadow="2"
     inkscape:zoom="0.99999999"
     inkscape:cx="525.7755"
     inkscape:cy="349.87465"
     inkscape:document-units="px"
     inkscape:current-layer="g4472"
     showgrid="false"
     inkscape:window-width="1920"
     inkscape:window-height="1004"
     inkscape:window-x="0"
     inkscape:window-y="0"
     inkscape:window-maximized="1"
     fit-margin-top="0"
     fit-margin-left="0"
     fit-margin-right="0"
     fit-margin-bottom="0"
     showguides="true"
     inkscape:guide-bbox="true"
     inkscape:showpageshadow="false"
     showborder="true"
     inkscape:snap-intersection-paths="false"
     inkscape:object-paths="true"
     inkscape:object-nodes="false"
     inkscape:snap-smooth-nodes="false"
     inkscape:snap-nodes="true" />
  <defs
     id="defs27452">
    <linearGradient
       id="linearGradient28799-4">
      <stop
         id="stop28801-13"
         offset="0"
         style="stop-color:#fefefc;stop-opacity:1;" />
      <stop
         style="stop-color:#fefefc;stop-opacity:1"
         offset="0.75733864"
         id="stop28807-8" />
      <stop
         id="stop28803-8"
         offset="1"
         style="stop-color:#d4d4d4;stop-opacity:1" />
    </linearGradient>
    <radialGradient
       r="14.572236"
       fy="137.66095"
       fx="223.19559"
       cy="137.66095"
       cx="223.19559"
       gradientTransform="matrix(1.0857794,-0.03431182,0.03943781,1.2479887,-154.54194,-26.542647)"
       gradientUnits="userSpaceOnUse"
       id="radialGradient29032"
       xlink:href="#linearGradient28799-4"
       inkscape:collect="always" />
    <linearGradient
       id="linearGradient28799-5-4">
      <stop
         id="stop28801-1-2"
         offset="0"
         style="stop-color:#fefefc;stop-opacity:1;" />
      <stop
         style="stop-color:#fefefc;stop-opacity:1"
         offset="0.75733864"
         id="stop28807-2-5" />
      <stop
         id="stop28803-6-6"
         offset="1"
         style="stop-color:#d4d4d4;stop-opacity:1" />
    </linearGradient>
    <radialGradient
       r="14.572236"
       fy="137.66095"
       fx="223.19559"
       cy="137.66095"
       cx="223.19559"
       gradientTransform="matrix(0.81524244,-0.03431182,0.02961133,1.2479887,-129.43743,-26.542647)"
       gradientUnits="userSpaceOnUse"
       id="radialGradient29648"
       xlink:href="#linearGradient28799-5-4"
       inkscape:collect="always" />
    <linearGradient
       inkscape:collect="always"
       id="linearGradient14392-7">
      <stop
         style="stop-color:#3e2a06;stop-opacity:1"
         offset="0"
         id="stop14394-8" />
      <stop
         style="stop-color:#ad780a;stop-opacity:1"
         offset="1"
         id="stop14396-6" />
    </linearGradient>
    <linearGradient
       inkscape:collect="always"
       xlink:href="#linearGradient14392-7"
       id="linearGradient14477"
       gradientUnits="userSpaceOnUse"
       gradientTransform="matrix(0.87491199,0,0,0.81148755,60.367186,62.586953)"
       x1="442.03912"
       y1="371.54401"
       x2="490.12241"
       y2="293.58548" />
    <linearGradient
       inkscape:collect="always"
       xlink:href="#linearGradient14392-7"
       id="linearGradient14485"
       gradientUnits="userSpaceOnUse"
       gradientTransform="translate(4e-6,9.6185359e-6)"
       x1="442.03912"
       y1="371.54401"
       x2="490.12241"
       y2="293.58548" />
    <linearGradient
       inkscape:collect="always"
       xlink:href="#linearGradient14392-7"
       id="linearGradient14493"
       gradientUnits="userSpaceOnUse"
       gradientTransform="translate(4e-6,9.6185359e-6)"
       x1="442.03912"
       y1="371.54401"
       x2="490.12241"
       y2="293.58548" />
    <clipPath
       clipPathUnits="userSpaceOnUse"
       id="clipPath14186-9">
      <path
         inkscape:original-d="m 137.57703,281.0191 c 6.32494,-1.3585 11.99755,4.87308 16.86679,9.13228 6.42572,5.62067 -8.54781,26.01622 13.24488,19.8293 5.86081,-1.66388 6.89528,11.31183 10.16415,16.45304 4.09971,6.44793 11.58575,13.6827 13.65231,21.03883 1.58383,5.63779 1.34339,10.90606 -1.62666,15.95302 -3.57124,6.06857 -11.7907,10.42929 -18.78877,11.20919 -5.73056,0.63864 -11.87822,-3.8351 -17.38362,-5.54906 -12.31617,-3.83432 -23.77946,-5.82074 -36.09666,-9.65174 -2.50091,-0.77785 -8.28361,-2.638 -10.96988,-3.42629 -4.51043,-1.3236 -6.46556,-0.99271 -8.72046,-4.76819 -2.68251,-4.49147 0.68051,-9.72669 3.16379,-14.79408 4.06995,-8.30524 1.91195,-17.82603 0.46203,-25.51057 -0.92235,-4.8884 -0.66071,-7.92707 2.7425,-10.79139 4.99476,-4.20385 14.53027,-1.53186 20.35272,-4.08305 5.82246,-2.55119 6.66365,-13.6939 12.93688,-15.04129 z"
         sodipodi:nodetypes="ssssssssssssssss"
         inkscape:connector-curvature="0"
         id="path14188-1"
         d="m 137.57703,281.0191 c 1.59929,-0.66295 3.3982,-0.78361 5.10074,-0.46963 1.70253,0.31398 3.31141,1.04948 4.74342,2.02239 2.86402,1.94583 4.98821,4.77774 7.02263,7.57952 4.67189,6.43406 9.16868,13.00227 13.24488,19.8293 3.30635,5.53766 6.34352,11.25685 10.16415,16.45304 2.49398,3.3919 5.3066,6.53947 7.813,9.92221 2.50639,3.38273 4.72794,7.05586 5.83931,11.11662 1.44411,5.27653 0.88463,11.09291 -1.62666,15.95302 -1.76663,3.41896 -4.47646,6.35228 -7.77242,8.33898 -3.29595,1.9867 -7.17064,3.01444 -11.01635,2.87021 -6.11413,-0.2293 -11.69944,-3.28515 -17.38362,-5.54906 -11.58097,-4.6125 -24.15978,-6.0594 -36.09666,-9.65174 -3.66859,-1.10404 -7.27582,-2.4107 -10.96988,-3.42629 -1.64125,-0.45122 -3.30866,-0.8482 -4.85875,-1.55144 -1.55008,-0.70325 -2.999548,-1.7491 -3.86171,-3.21675 -0.666391,-1.13439 -0.948386,-2.47002 -0.930187,-3.78554 0.0182,-1.31552 0.325889,-2.61453 0.773815,-3.85158 0.895851,-2.47409 2.343262,-4.71374 3.320162,-7.15696 1.59511,-3.98935 1.88169,-8.38839 1.66657,-12.67942 -0.21511,-4.29103 -0.91078,-8.54478 -1.20454,-12.83115 -0.13118,-1.91406 -0.18066,-3.85256 0.18479,-5.73598 0.36545,-1.88343 1.17577,-3.72459 2.55771,-5.05541 1.27406,-1.22693 2.96492,-1.95531 4.69643,-2.31651 1.73151,-0.3612 3.51533,-0.37747 5.28367,-0.33762 1.76833,0.0399 3.54067,0.13425 5.30351,-0.0106 1.76284,-0.14488 3.53347,-0.54055 5.06911,-1.41828 1.45996,-0.83447 2.65433,-2.0745 3.64374,-3.43424 0.9894,-1.35974 1.78909,-2.84573 2.60891,-4.31396 0.81983,-1.46823 1.66834,-2.93151 2.74157,-4.22611 1.07324,-1.2946 2.38923,-2.42304 3.94266,-3.06698"
         style="fill:#402c07;fill-opacity:1;stroke:none" />
    </clipPath>
    <inkscape:path-effect
       is_visible="true"
       id="path-effect4669-1"
       effect="spiro" />
    <inkscape:path-effect
       is_visible="true"
       id="path-effect4669-4-3"
       effect="spiro" />
    <inkscape:path-effect
       effect="spiro"
       id="path-effect14972-2-2"
       is_visible="true" />
    <inkscape:path-effect
       effect="spiro"
       id="path-effect15017-9"
       is_visible="true" />
    <clipPath
       clipPathUnits="userSpaceOnUse"
       id="clipPath15031-3">
      <path
         style="fill:none;stroke:#729fcf;stroke-width:0.125;stroke-linecap:butt;stroke-linejoin:miter;stroke-miterlimit:4;stroke-dasharray:none;stroke-opacity:1"
         d="m 248.06066,184.61218 c -2.60091,3.4397 -5.23338,6.85555 -7.89695,10.24696 -2.83301,3.60715 -5.70116,7.1866 -8.58729,10.75139 -3.54135,4.37407 -7.15155,8.79286 -9.44912,13.93045 -1.97407,4.41422 -2.91014,9.20748 -4.26498,13.84932 -1.53862,5.27153 -3.62627,10.37023 -5.97071,15.33612 -2.1648,4.58539 -4.54978,9.06293 -6.93891,13.53553 -1.73823,3.25407 -3.50515,6.58104 -4.10782,10.22071 -0.47627,2.87632 -0.19849,5.84423 0.53376,8.66626 0.73224,2.82202 1.90964,5.5106 3.23775,8.10601 5.66724,11.07504 14.17003,20.62168 24.24176,27.92472 4.57063,3.31418 9.46669,6.18109 14.60245,8.52595 2.78247,1.27041 5.71355,2.40436 8.77186,2.45744 1.52915,0.0265 3.0741,-0.22544 4.47434,-0.84055 1.40024,-0.6151 2.65068,-1.60373 3.48254,-2.88709 1.02278,-1.5779 1.36992,-3.53829 1.16461,-5.40743 -0.2053,-1.86914 -0.93484,-3.65294 -1.91324,-5.25873 -2.38997,-3.92251 -6.1652,-6.76055 -9.79642,-9.57343 -7.84055,-6.07358 -15.42466,-12.48038 -22.68212,-19.23996 -2.04911,-1.90854 -4.0984,-3.87759 -5.53019,-6.28412 -1.3943,-2.34352 -2.14763,-5.01375 -2.65783,-7.69253 -1.39963,-7.34872 -1.0404,-15.0827 1.45958,-22.13343 0.97802,-2.75834 2.27066,-5.39225 3.51815,-8.03965 2.1622,-4.58855 4.21133,-9.26299 7.04933,-13.46723 3.53268,-5.23334 8.24484,-9.67275 11.15147,-15.27803 2.45457,-4.7335 3.49353,-10.05742 4.36185,-15.31831 0.66531,-4.03089 1.24751,-8.07549 1.74613,-12.13037"
         id="path15033-2"
         inkscape:connector-curvature="0"
         inkscape:original-d="m 248.06066,184.61218 c 0,0 -5.10626,6.34527 -7.89695,10.24696 -2.7907,3.9017 -5.73652,6.64881 -8.58729,10.75139 -2.85076,4.10259 -7.36482,9.43164 -9.44912,13.93045 -2.08429,4.49881 -2.32047,9.0356 -4.26498,13.84932 -1.94451,4.81371 -3.70129,10.64183 -5.97071,15.33612 -2.26943,4.69429 -5.37093,9.68473 -6.93891,13.53553 -1.56799,3.8508 -3.81119,5.72384 -4.10782,10.22071 -0.29663,4.49686 -0.57747,8.31749 3.77151,16.77227 4.34898,8.45478 17.23626,22.00721 24.24176,27.92472 7.00549,5.9175 9.39133,7.22492 14.60245,8.52595 5.21112,1.30104 13.85627,2.9981 16.72874,-1.2702 2.87246,-4.26829 2.27191,-5.96483 -0.74863,-10.66616 -3.02055,-4.70132 -4.82469,-5.30209 -9.79642,-9.57343 -4.97172,-4.27133 -18.63696,-14.87266 -22.68212,-19.23996 -4.04516,-4.36729 -7.10731,-3.41164 -5.53019,-6.28412 1.57712,-2.87249 -2.20738,-4.00856 -2.65783,-7.69253 -0.76361,-6.24511 0.9436,-18.71046 1.45958,-22.13343 0.51598,-3.42296 1.22371,-2.92446 3.51815,-8.03965 2.29444,-5.11519 4.12424,-8.62435 7.04933,-13.46723 2.92509,-4.84289 8.62493,-10.12787 11.15147,-15.27803 2.52654,-5.15017 3.50393,-10.72068 4.36185,-15.31831 0.85792,-4.59763 1.74613,-12.13037 1.74613,-12.13037 z"
         sodipodi:nodetypes="czzzzzzzzzzzzzzzszzzzzc" />
    </clipPath>
    <inkscape:path-effect
       is_visible="true"
       id="path-effect29716-6-1"
       effect="spiro" />
    <clipPath
       clipPathUnits="userSpaceOnUse"
       id="clipPath14822-9">
      <path
         sodipodi:nodetypes="aaaasssaccaa"
         inkscape:connector-curvature="0"
         d="m 386.1875,285.32775 c -0.40516,-1.10369 -1.11845,-2.08156 -1.9907,-2.86987 -0.87226,-0.78832 -1.90049,-1.39229 -2.98278,-1.85155 -2.16459,-0.91852 -4.52053,-1.26149 -6.83152,-1.69556 -2.17919,-0.40931 -4.34179,-0.90631 -6.52782,-1.27734 -2.27136,-0.38551 -4.6179,-0.63213 -6.8653,-0.1253 -1.96583,0.44333 -3.7845,1.45879 -5.27172,2.81864 -1.48723,1.35984 -2.64911,3.0564 -3.48499,4.89007 -1.47218,3.22952 -1.93451,6.86503 -1.65394,10.40316 0.20882,2.63325 0.87532,5.34594 2.60877,7.33912 1.40065,1.61052 3.38733,2.61526 5.43398,3.22092 3.52502,1.04316 7.36663,0.98822 10.86038,-0.1553 5.76689,-1.93113 10.87568,-5.77387 14.33034,-10.77903 1.13861,-1.64963 2.11217,-3.44809 2.5532,-5.4034 0.33597,-1.48955 0.34831,-3.08112 -0.1779,-4.51456"
         id="path14824-1"
         inkscape:original-d="m 386.1875,285.32775 c -2.36571,-3.81321 -7.59294,-4.9003 -11.805,-6.41698 -2.08672,-0.75138 -4.32322,-1.04333 -6.52782,-1.27734 -2.27612,-0.2416 -4.71593,-0.91505 -6.8653,-0.1253 -3.64566,1.33955 -7.24986,3.80684 -8.75671,7.70871 -1.13743,2.94527 -1.80122,7.05909 -1.65394,10.40316 0.13075,2.96891 0.9633,5.07273 2.60877,7.33912 1.08803,1.49859 3.40096,2.67896 5.43398,3.22092 3.49923,0.93284 7.37483,0.82779 10.86038,-0.1553 5.98587,-2.2615 11.09272,-5.76885 14.33034,-10.77903 1.07459,-1.67639 2.15539,-3.45031 2.5532,-5.4034 0.30053,-1.4755 0.61519,-3.23621 -0.1779,-4.51456 z"
         style="fill:none;stroke:#ce5c00;stroke-width:1px;stroke-linecap:butt;stroke-linejoin:miter;stroke-opacity:1" />
    </clipPath>
    <clipPath
       clipPathUnits="userSpaceOnUse"
       id="clipPath14822-2-4">
      <path
         sodipodi:nodetypes="aaaasssaccaa"
         inkscape:connector-curvature="0"
         d="m 386.1875,285.32775 c -0.40516,-1.10369 -1.11845,-2.08156 -1.9907,-2.86987 -0.87226,-0.78832 -1.90049,-1.39229 -2.98278,-1.85155 -2.16459,-0.91852 -4.52053,-1.26149 -6.83152,-1.69556 -2.17919,-0.40931 -4.34179,-0.90631 -6.52782,-1.27734 -2.27136,-0.38551 -4.6179,-0.63213 -6.8653,-0.1253 -1.96583,0.44333 -3.7845,1.45879 -5.27172,2.81864 -1.48723,1.35984 -2.64911,3.0564 -3.48499,4.89007 -1.47218,3.22952 -1.93451,6.86503 -1.65394,10.40316 0.20882,2.63325 0.87532,5.34594 2.60877,7.33912 1.40065,1.61052 3.38733,2.61526 5.43398,3.22092 3.52502,1.04316 7.36663,0.98822 10.86038,-0.1553 5.76689,-1.93113 10.87568,-5.77387 14.33034,-10.77903 1.13861,-1.64963 2.11217,-3.44809 2.5532,-5.4034 0.33597,-1.48955 0.34831,-3.08112 -0.1779,-4.51456"
         id="path14824-6-5"
         inkscape:original-d="m 386.1875,285.32775 c -2.36571,-3.81321 -7.59294,-4.9003 -11.805,-6.41698 -2.08672,-0.75138 -4.32322,-1.04333 -6.52782,-1.27734 -2.27612,-0.2416 -4.71593,-0.91505 -6.8653,-0.1253 -3.64566,1.33955 -7.24986,3.80684 -8.75671,7.70871 -1.13743,2.94527 -1.80122,7.05909 -1.65394,10.40316 0.13075,2.96891 0.9633,5.07273 2.60877,7.33912 1.08803,1.49859 3.40096,2.67896 5.43398,3.22092 3.49923,0.93284 7.37483,0.82779 10.86038,-0.1553 5.98587,-2.2615 11.09272,-5.76885 14.33034,-10.77903 1.07459,-1.67639 2.15539,-3.45031 2.5532,-5.4034 0.30053,-1.4755 0.61519,-3.23621 -0.1779,-4.51456 z"
         style="fill:none;stroke:#ce5c00;stroke-width:1px;stroke-linecap:butt;stroke-linejoin:miter;stroke-opacity:1" />
    </clipPath>
    <linearGradient
       id="linearGradient14518-6">
      <stop
         id="stop14540-0"
         offset="0"
         style="stop-color:#110800;stop-opacity:1;" />
      <stop
         style="stop-color:#a65a00;stop-opacity:0.80000001;"
         offset="0.59066743"
         id="stop14542-5" />
      <stop
         style="stop-color:#ff921e;stop-opacity:0;"
         offset="1"
         id="stop14522-4" />
    </linearGradient>
    <inkscape:path-effect
       is_visible="true"
       id="path-effect29716-0-0"
       effect="spiro" />
    <linearGradient
       id="linearGradient14518-2-2">
      <stop
         id="stop14540-5-0"
         offset="0"
         style="stop-color:#110800;stop-opacity:1;" />
      <stop
         style="stop-color:#a65a00;stop-opacity:0.80000001;"
         offset="0.59066743"
         id="stop14542-2-7" />
      <stop
         style="stop-color:#ff921e;stop-opacity:0;"
         offset="1"
         id="stop14522-2-1" />
    </linearGradient>
    <inkscape:path-effect
       is_visible="true"
       id="path-effect29716-0-8-3"
       effect="spiro" />
    <inkscape:path-effect
       effect="spiro"
       id="path-effect14300-7"
       is_visible="true" />
    <clipPath
       clipPathUnits="userSpaceOnUse"
       id="clipPath14489-3">
      <path
         style="fill:url(#linearGradient14493);fill-opacity:1;stroke:none"
         d="m 516.00562,331.8756 c -0.6714,1.71905 -1.62682,3.32679 -2.81579,4.73826 -2.6238,3.11482 -6.268,5.17039 -9.89648,7.01985 -6.1886,3.15437 -12.60169,5.92177 -18.41964,9.71654 -3.89802,2.54249 -7.4959,5.52671 -10.86016,8.74238 -2.87719,2.75012 -5.60582,5.68745 -8.83247,8.01771 -3.25567,2.35122 -7.01915,4.05426 -10.99061,4.6502 -4.83026,0.72481 -9.82134,-0.21289 -14.29898,-2.16416 -3.13754,-1.36728 -6.15569,-3.3229 -7.96301,-6.22931 -1.81425,-2.91754 -2.22807,-6.48813 -2.23266,-9.92375 -0.008,-6.07666 1.11824,-12.09004 2.17848,-18.07349 0.88097,-4.97177 1.71949,-9.95483 2.26013,-14.97502 0.98337,-9.13118 0.9763,-18.35278 0.3199,-27.51327 -0.10993,-1.53416 -0.23754,-3.0832 -0.008,-4.60412 0.22922,-1.52092 0.85475,-3.0367 2.02069,-4.03986 1.07696,-0.9266 2.52093,-1.33598 3.93947,-1.4145 1.41854,-0.0785 2.83404,0.14655 4.23982,0.35197 3.31254,0.48405 6.65159,0.8649 9.88917,1.71656 2.04284,0.53738 4.03315,1.25925 6.0722,1.81081 3.40258,0.92039 6.96639,1.36144 10.46739,0.95192 3.76917,-0.44089 7.42987,-1.85678 11.22363,-1.76474 1.55658,0.0378 3.1015,0.33171 4.58649,0.79985 1.51539,0.47772 3.00914,1.16182 4.12281,2.29512 0.84639,0.8613 1.43579,1.94539 1.87872,3.06879 0.65982,1.67352 1.01492,3.457 1.16703,5.24945 0.13475,1.58788 0.11343,3.19441 0.41433,4.75933 0.49503,2.57458 1.84746,4.92305 3.52848,6.93494 1.68102,2.01189 3.68982,3.72048 5.69641,5.40783 1.99908,1.68103 4.0106,3.35469 6.16708,4.82839 1.0121,0.69165 2.05642,1.33949 3.01736,2.10062 0.96094,0.76113 1.84466,1.6468 2.44543,2.71535 0.81492,1.44944 1.06377,3.2077 0.68307,4.82635 l 2e-5,0"
         id="path14491-6"
         inkscape:connector-curvature="0"
         sodipodi:nodetypes="aaaaaaaaaaaaaaaaaaaaaaaacscaa"
         inkscape:original-d="m 516.00562,331.8756 c 0.90859,1.59687 -1.57016,3.38773 -2.81579,4.73826 -2.74207,2.97299 -6.45099,4.90178 -9.89648,7.01985 -5.91373,3.63539 -12.61918,5.90302 -18.41964,9.71654 -3.88318,2.553 -7.32809,5.72221 -10.86016,8.74238 -3.0221,2.58411 -5.48201,5.87643 -8.83247,8.01771 -3.3519,2.1422 -7.0437,4.15414 -10.99061,4.6502 -4.78298,0.60114 -9.87221,-0.25577 -14.29898,-2.16416 -3.0947,-1.33413 -6.16113,-3.38144 -7.96301,-6.22931 -1.81288,-2.86525 -2.06093,-6.5375 -2.23266,-9.92375 -0.30734,-6.06031 1.36252,-12.0605 2.17848,-18.07349 0.67882,-5.00236 1.85312,-9.94325 2.26013,-14.97502 0.73946,-9.14185 -0.7797,-18.40771 0.3199,-27.51327 0.35468,-2.93704 -0.181,-6.65876 2.01238,-8.64398 2.0384,-1.84494 5.43058,-1.1212 8.17929,-1.06253 3.34492,0.0714 6.63224,0.95108 9.88917,1.71656 2.05612,0.48325 3.99816,1.41138 6.0722,1.81081 3.44031,0.66255 6.96573,1.06623 10.46739,0.95192 3.78516,-0.12356 7.43659,-1.79636 11.22363,-1.76474 1.55185,0.013 3.12359,0.28186 4.58649,0.79985 1.48266,0.52499 2.98786,1.20618 4.12281,2.29512 0.86547,0.83038 1.42933,1.95676 1.87872,3.06879 0.67163,1.66196 0.8942,3.4778 1.16703,5.24945 0.24238,1.57389 -0.1531,3.27141 0.41433,4.75933 1.83023,4.79924 5.57666,8.72712 9.22489,12.34277 1.74278,1.93455 4.03041,3.53404 6.16708,4.82839 2.26886,1.37444 4.3675,2.44991 5.46279,4.81597 0.65901,1.48517 -0.54371,3.76097 0.68307,4.82635 z" />
    </clipPath>
    <inkscape:path-effect
       effect="spiro"
       id="path-effect14300-2-7"
       is_visible="true" />
    <clipPath
       clipPathUnits="userSpaceOnUse"
       id="clipPath14481-1">
      <path
         style="fill:url(#linearGradient14485);fill-opacity:1;stroke:none"
         d="m 516.00562,331.8756 c -0.6714,1.71905 -1.62682,3.32679 -2.81579,4.73826 -2.6238,3.11482 -6.268,5.17039 -9.89648,7.01985 -6.1886,3.15437 -12.60169,5.92177 -18.41964,9.71654 -3.89802,2.54249 -7.4959,5.52671 -10.86016,8.74238 -2.87719,2.75012 -5.60582,5.68745 -8.83247,8.01771 -3.25567,2.35122 -7.01915,4.05426 -10.99061,4.6502 -4.83026,0.72481 -9.82134,-0.21289 -14.29898,-2.16416 -3.13754,-1.36728 -6.15569,-3.3229 -7.96301,-6.22931 -1.81425,-2.91754 -2.22807,-6.48813 -2.23266,-9.92375 -0.008,-6.07666 1.11824,-12.09004 2.17848,-18.07349 0.88097,-4.97177 1.71949,-9.95483 2.26013,-14.97502 0.98337,-9.13118 0.9763,-18.35278 0.3199,-27.51327 -0.10993,-1.53416 -0.23754,-3.0832 -0.008,-4.60412 0.22922,-1.52092 0.85475,-3.0367 2.02069,-4.03986 1.07696,-0.9266 2.52093,-1.33598 3.93947,-1.4145 1.41854,-0.0785 2.83404,0.14655 4.23982,0.35197 3.31254,0.48405 6.65159,0.8649 9.88917,1.71656 2.04284,0.53738 4.03315,1.25925 6.0722,1.81081 3.40258,0.92039 6.96639,1.36144 10.46739,0.95192 3.76917,-0.44089 7.42987,-1.85678 11.22363,-1.76474 1.55658,0.0378 3.1015,0.33171 4.58649,0.79985 1.51539,0.47772 3.00914,1.16182 4.12281,2.29512 0.84639,0.8613 1.43579,1.94539 1.87872,3.06879 0.65982,1.67352 1.01492,3.457 1.16703,5.24945 0.13475,1.58788 0.11343,3.19441 0.41433,4.75933 0.49503,2.57458 1.84746,4.92305 3.52848,6.93494 1.68102,2.01189 3.68982,3.72048 5.69641,5.40783 1.99908,1.68103 4.0106,3.35469 6.16708,4.82839 1.0121,0.69165 2.05642,1.33949 3.01736,2.10062 0.96094,0.76113 1.84466,1.6468 2.44543,2.71535 0.81492,1.44944 1.06377,3.2077 0.68307,4.82635 l 2e-5,0"
         id="path14483-3"
         inkscape:connector-curvature="0"
         sodipodi:nodetypes="aaaaaaaaaaaaaaaaaaaaaaaacscaa"
         inkscape:original-d="m 516.00562,331.8756 c 0.90859,1.59687 -1.57016,3.38773 -2.81579,4.73826 -2.74207,2.97299 -6.45099,4.90178 -9.89648,7.01985 -5.91373,3.63539 -12.61918,5.90302 -18.41964,9.71654 -3.88318,2.553 -7.32809,5.72221 -10.86016,8.74238 -3.0221,2.58411 -5.48201,5.87643 -8.83247,8.01771 -3.3519,2.1422 -7.0437,4.15414 -10.99061,4.6502 -4.78298,0.60114 -9.87221,-0.25577 -14.29898,-2.16416 -3.0947,-1.33413 -6.16113,-3.38144 -7.96301,-6.22931 -1.81288,-2.86525 -2.06093,-6.5375 -2.23266,-9.92375 -0.30734,-6.06031 1.36252,-12.0605 2.17848,-18.07349 0.67882,-5.00236 1.85312,-9.94325 2.26013,-14.97502 0.73946,-9.14185 -0.7797,-18.40771 0.3199,-27.51327 0.35468,-2.93704 -0.181,-6.65876 2.01238,-8.64398 2.0384,-1.84494 5.43058,-1.1212 8.17929,-1.06253 3.34492,0.0714 6.63224,0.95108 9.88917,1.71656 2.05612,0.48325 3.99816,1.41138 6.0722,1.81081 3.44031,0.66255 6.96573,1.06623 10.46739,0.95192 3.78516,-0.12356 7.43659,-1.79636 11.22363,-1.76474 1.55185,0.013 3.12359,0.28186 4.58649,0.79985 1.48266,0.52499 2.98786,1.20618 4.12281,2.29512 0.86547,0.83038 1.42933,1.95676 1.87872,3.06879 0.67163,1.66196 0.8942,3.4778 1.16703,5.24945 0.24238,1.57389 -0.1531,3.27141 0.41433,4.75933 1.83023,4.79924 5.57666,8.72712 9.22489,12.34277 1.74278,1.93455 4.03041,3.53404 6.16708,4.82839 2.26886,1.37444 4.3675,2.44991 5.46279,4.81597 0.65901,1.48517 -0.54371,3.76097 0.68307,4.82635 z" />
    </clipPath>
    <inkscape:path-effect
       effect="spiro"
       id="path-effect14300-2-2-0"
       is_visible="true" />
    <clipPath
       clipPathUnits="userSpaceOnUse"
       id="clipPath14473-5">
      <path
         style="fill:url(#linearGradient14477);fill-opacity:1;stroke:none"
         d="m 511.82669,331.89986 c -0.60617,1.40358 -1.44178,2.70776 -2.46357,3.84504 -2.32524,2.58805 -5.50706,4.22246 -8.65855,5.69652 -5.42045,2.53534 -11.00071,4.7788 -16.11556,7.88485 -3.38301,2.05437 -6.53696,4.47221 -9.50169,7.09434 -2.52461,2.23286 -4.92977,4.6271 -7.72763,6.50627 -2.88313,1.93644 -6.17534,3.29888 -9.61582,3.77358 -4.21817,0.58201 -8.55335,-0.18335 -12.51035,-1.75619 -2.7091,-1.07682 -5.36625,-2.6185 -6.96693,-5.05501 -1.53813,-2.3413 -1.9333,-5.25173 -1.95338,-8.053 -0.0354,-4.93859 0.96501,-9.81816 1.90598,-14.66641 0.78215,-4.02995 1.52682,-8.0717 1.97741,-12.15204 0.81784,-7.40607 0.66114,-14.88536 0.27989,-22.32668 -0.064,-1.24906 -0.13361,-2.5105 0.0789,-3.74301 0.21256,-1.23251 0.73646,-2.45247 1.68171,-3.27147 0.93914,-0.8137 2.20952,-1.15942 3.45104,-1.2115 1.24152,-0.0521 2.47642,0.16381 3.70512,0.34927 2.88969,0.43617 5.81087,0.7091 8.65215,1.39297 1.78651,0.43 3.53091,1.02011 5.31265,1.46945 2.98632,0.75312 6.09645,1.10709 9.15804,0.77247 3.2941,-0.36004 6.50688,-1.50957 9.81969,-1.43207 1.35838,0.0318 2.70755,0.27142 4.01277,0.64907 1.31265,0.3798 2.61744,0.9202 3.6071,1.86246 0.72535,0.69061 1.25006,1.56936 1.64371,2.49029 0.57625,1.34814 0.88626,2.79994 1.02105,4.25986 0.11897,1.28855 0.10468,2.59405 0.36251,3.86214 0.4369,2.14878 1.63966,4.08139 3.11506,5.70353 1.4754,1.62214 3.22406,2.96752 4.9559,4.31247 1.75634,1.36398 3.50975,2.7398 5.39565,3.91818 0.88228,0.55128 1.79349,1.05932 2.63473,1.67142 0.84123,0.61209 1.61878,1.33907 2.14473,2.23668 0.68386,1.16711 0.90229,2.59857 0.59763,3.91652 l 2e-5,0"
         id="path14475-9"
         inkscape:connector-curvature="0"
         sodipodi:nodetypes="aaaaaaaaaaaaaaaaaaaaaaaacscaa"
         inkscape:original-d="m 511.82669,331.89986 c 0.79493,1.29584 -1.37375,2.7491 -2.46357,3.84504 -2.39907,2.41255 -5.64405,3.97773 -8.65855,5.69652 -5.17399,2.95008 -11.04067,4.79023 -16.11556,7.88485 -3.39744,2.07173 -6.41144,4.64351 -9.50169,7.09434 -2.64407,2.09697 -4.79627,4.76865 -7.72763,6.50627 -2.93262,1.73837 -6.16262,3.37103 -9.61582,3.77358 -4.18468,0.48781 -8.63731,-0.20756 -12.51035,-1.75619 -2.70759,-1.08263 -5.39044,-2.744 -6.96693,-5.05501 -1.58611,-2.32511 -1.80313,-5.3051 -1.95338,-8.053 -0.2689,-4.91787 1.19208,-9.78694 1.90598,-14.66641 0.59391,-4.05935 1.62131,-8.06882 1.97741,-12.15204 0.64696,-7.4185 -0.68217,-14.93763 0.27989,-22.32668 0.31031,-2.38337 -0.15836,-5.4035 1.76065,-7.01448 1.78342,-1.49715 4.75128,-0.90984 7.15616,-0.86223 2.92651,0.0579 5.80263,0.77179 8.65215,1.39297 1.79893,0.39215 3.49804,1.14531 5.31265,1.46945 3.00996,0.53765 6.0944,0.86523 9.15804,0.77247 3.31168,-0.10027 6.50636,-1.45773 9.81969,-1.43207 1.35773,0.0105 2.73287,0.22873 4.01277,0.64907 1.2972,0.42602 2.61412,0.9788 3.6071,1.86246 0.75721,0.67384 1.25054,1.58789 1.64371,2.49029 0.58762,1.34866 0.78235,2.82219 1.02105,4.25986 0.21206,1.27719 -0.13395,2.65471 0.36251,3.86214 1.60129,3.89452 4.87908,7.08195 8.07096,10.016 1.52478,1.56986 3.52626,2.86783 5.39565,3.91818 1.98506,1.11534 3.82118,1.98807 4.77946,3.9081 0.57658,1.2052 -0.47569,3.05198 0.59763,3.91652 z" />
    </clipPath>
    <inkscape:path-effect
       is_visible="true"
       id="path-effect4582-3"
       effect="spiro" />
    <inkscape:path-effect
       is_visible="true"
       id="path-effect4500-7"
       effect="spiro" />
    <clipPath
       clipPathUnits="userSpaceOnUse"
       id="clipPath14656-7">
      <path
         sodipodi:nodetypes="aaaaassssaaaaaa"
         inkscape:connector-curvature="0"
         d="m 304.84727,225.44951 c 6.01627,4.92338 9.77707,12.317 10.94319,20.00305 1.8254,12.03148 -2.34636,24.07488 -6.44591,35.53273 -0.81749,2.28481 -1.63978,4.59033 -1.96473,6.99513 -0.32495,2.4048 -0.11897,4.94825 1.02948,7.08594 1.30279,2.42497 3.73227,4.12469 6.36677,4.92292 2.58877,0.78438 5.39365,0.76103 8.01466,0.0922 2.62101,-0.66882 5.06097,-1.96774 7.18716,-3.63996 5.48002,-4.30997 8.75799,-10.98552 10.01043,-17.84394 1.25243,-6.85841 0.63908,-13.92879 -0.551,-20.7983 -1.62313,-9.36916 -4.30898,-18.53961 -7.74003,-27.40773 -2.51766,-6.50732 -5.46794,-12.91081 -9.61753,-18.52016 -4.04611,-5.46946 -9.16208,-10.08954 -13.10336,-15.63502 -2.73209,-3.84412 -4.89983,-8.13097 -8.1917,-11.50812 -1.64594,-1.68858 -3.57654,-3.13527 -5.76975,-4.00143 -2.19321,-0.86616 -4.66356,-1.12446 -6.93254,-0.48249 -1.50468,0.42573 -2.89193,1.23739 -4.03791,2.30136 -1.14598,1.06397 -2.05268,2.37637 -2.69275,3.80312 -1.28015,2.85349 -1.47719,6.11241 -0.96512,9.1977 0.66114,3.98343 2.44407,7.69333 4.46569,11.18873 2.27396,3.93169 4.918,7.71926 8.38442,10.65407 3.5985,3.04664 7.96161,5.07413 11.61053,8.0602"
         id="path14658-9"
         inkscape:original-d="m 304.84727,225.44951 c 5.05628,5.63479 9.72833,12.47181 10.94319,20.00305 1.91724,11.88535 -4.97006,23.58228 -6.44591,35.53273 -0.57645,4.66766 -2.84839,9.7988 -0.93525,14.08107 1.10334,2.46967 3.76154,4.35176 6.36677,4.92292 5.08221,1.1142 11.95719,2.41291 15.20182,-3.54776 6.07775,-11.16533 10.5961,-26.78641 9.45943,-38.64224 -0.906,-9.44981 -3.86858,-18.61978 -7.74003,-27.40773 -2.817,-6.39442 -6.14704,-12.5833 -9.61753,-18.52016 -3.44146,-5.88721 -8.20051,-10.94245 -13.10336,-15.63502 -6.34842,-6.07614 -12.40311,-17.98386 -20.89399,-15.99204 -5.48499,1.28669 -7.45029,9.57719 -7.69578,15.30218 -0.17245,4.02188 2.46425,7.71677 4.46569,11.18873 2.26238,3.92465 5.10447,7.56255 8.38442,10.65407 3.43735,3.23988 8.4511,4.53927 11.61053,8.0602 z"
         style="fill:none;stroke:#c17d11;stroke-width:1px;stroke-linecap:butt;stroke-linejoin:miter;stroke-opacity:1" />
    </clipPath>
    <inkscape:path-effect
       is_visible="true"
       id="path-effect29707-7-6"
       effect="spiro" />
    <inkscape:path-effect
       is_visible="true"
       id="path-effect29553-7"
       effect="spiro" />
    <clipPath
       id="clipPath29644-8"
       clipPathUnits="userSpaceOnUse">
      <path
         sodipodi:nodetypes="zzzzzzz"
         inkscape:connector-curvature="0"
         inkscape:original-d="m 54.232441,122.36218 c -3.79199,4.78949 -8.5176,11.69104 -8.19273,17.25 0.32487,5.55896 3.86025,13.93486 8.37542,16 4.51517,2.06514 5.75436,0.0125 8.32902,-2.5 2.57466,-2.51247 3.85871,-7.34762 4.00585,-12.25 0.14713,-4.90238 -3.03534,-11.91949 -5.43855,-15.25 -2.40321,-3.33051 -3.28702,-8.03949 -7.07901,-3.25 z"
         id="path29646-8"
         d="m 54.232441,122.36218 c -1.780966,0.097 -3.484616,0.91899 -4.787851,2.1367 -1.303235,1.21771 -2.221372,2.81176 -2.786181,4.50357 -1.129618,3.38363 -0.875481,7.05177 -0.618698,10.60973 0.23251,3.22162 0.470404,6.50533 1.676785,9.50158 0.60319,1.49813 1.450247,2.91021 2.580338,4.06395 1.130092,1.15374 2.551736,2.04189 4.118297,2.43447 1.468838,0.36809 3.038161,0.29183 4.482784,-0.16209 1.444623,-0.45391 2.763917,-1.27887 3.846236,-2.33791 1.57904,-1.54507 2.643262,-3.5662 3.253449,-5.68947 0.610186,-2.12328 0.784157,-4.35155 0.752401,-6.56053 -0.03974,-2.76435 -0.400909,-5.53851 -1.265755,-8.16439 -0.864846,-2.62588 -2.245742,-5.10327 -4.172795,-7.08561 -0.933308,-0.96009 -1.997766,-1.80513 -3.198586,-2.39747 -1.200819,-0.59233 -2.54344,-0.92535 -3.880424,-0.85253"
         style="fill:url(#radialGradient29648);fill-opacity:1;stroke:none" />
    </clipPath>
    <linearGradient
       id="linearGradient28469-0">
      <stop
         style="stop-color:#d2940a;stop-opacity:1"
         offset="0"
         id="stop28479-4" />
      <stop
         style="stop-color:#d89c08;stop-opacity:1"
         offset="0.75143719"
         id="stop28477-2" />
      <stop
         id="stop28485-7"
         offset="0.86579126"
         style="stop-color:#b67e07;stop-opacity:1;" />
      <stop
         id="stop28473-1"
         offset="1"
         style="stop-color:#946106;stop-opacity:1" />
    </linearGradient>
    <inkscape:path-effect
       is_visible="true"
       id="path-effect28463-4"
       effect="spiro" />
    <inkscape:path-effect
       is_visible="true"
       id="path-effect28489-4"
       effect="spiro" />
    <inkscape:path-effect
       is_visible="true"
       id="path-effect28273-54-7"
       effect="spiro" />
    <linearGradient
       id="linearGradient28275-8">
      <stop
         id="stop28277-1"
         offset="0"
         style="stop-color:#ad780a;stop-opacity:1" />
      <stop
         style="stop-color:#d89e08;stop-opacity:1"
         offset="0.11972899"
         id="stop28291-9" />
      <stop
         style="stop-color:#edb80b;stop-opacity:1"
         offset="0.25514477"
         id="stop28289-6" />
      <stop
         style="stop-color:#ebc80d;stop-opacity:1"
         offset="0.39194193"
         id="stop28287-6" />
      <stop
         style="stop-color:#f5d838;stop-opacity:1"
         offset="0.52741116"
         id="stop28285-7" />
      <stop
         style="stop-color:#f6d811;stop-opacity:1"
         offset="0.76906693"
         id="stop28283-7" />
      <stop
         id="stop28279-5"
         offset="1"
         style="stop-color:#f5cd31;stop-opacity:1" />
    </linearGradient>
    <inkscape:path-effect
       is_visible="true"
       id="path-effect28273-44"
       effect="spiro" />
    <inkscape:path-effect
       is_visible="true"
       id="path-effect28384-7"
       effect="spiro" />
    <linearGradient
       id="linearGradient29529-6">
      <stop
         id="stop29531-0"
         offset="0"
         style="stop-color:#3a2903;stop-opacity:1;" />
      <stop
         style="stop-color:#735208;stop-opacity:1"
         offset="0.55472803"
         id="stop29539-7" />
      <stop
         id="stop29533-8"
         offset="1"
         style="stop-color:#ac8c04;stop-opacity:1" />
    </linearGradient>
    <inkscape:path-effect
       is_visible="true"
       id="path-effect29455-3"
       effect="spiro" />
    <linearGradient
       id="linearGradient29477-3">
      <stop
         id="stop29479-5"
         offset="0"
         style="stop-color:#757574;stop-opacity:0" />
      <stop
         style="stop-color:#757574;stop-opacity:1;"
         offset="0.26291031"
         id="stop29487-5" />
      <stop
         style="stop-color:#757574;stop-opacity:1;"
         offset="0.5"
         id="stop29485-0" />
      <stop
         id="stop29481-3"
         offset="1"
         style="stop-color:#757574;stop-opacity:0" />
    </linearGradient>
    <linearGradient
       id="linearGradient29336-6">
      <stop
         id="stop29338-1"
         offset="0"
         style="stop-color:#646464;stop-opacity:0" />
      <stop
         style="stop-color:#646464;stop-opacity:0.5825243"
         offset="0.30628255"
         id="stop29344-7" />
      <stop
         id="stop29354-5"
         offset="0.47000006"
         style="stop-color:#646464;stop-opacity:1" />
      <stop
         style="stop-color:#646464;stop-opacity:0.25728154"
         offset="0.72834015"
         id="stop29356-3" />
      <stop
         id="stop29340-6"
         offset="1"
         style="stop-color:#646464;stop-opacity:0;" />
    </linearGradient>
    <linearGradient
       id="linearGradient28976-3">
      <stop
         id="stop28978-7"
         offset="0"
         style="stop-color:#747474;stop-opacity:1" />
      <stop
         style="stop-color:#8c8c8c;stop-opacity:1;"
         offset="0.125"
         id="stop29259-5" />
      <stop
         style="stop-color:#a4a4a4;stop-opacity:1;"
         offset="0.25"
         id="stop29257-0" />
      <stop
         style="stop-color:#d4d4d4;stop-opacity:1"
         offset="0.5"
         id="stop28984-4" />
      <stop
         id="stop28986-0"
         offset="0.61919296"
         style="stop-color:#d4d4d4;stop-opacity:1" />
      <stop
         id="stop28980-2"
         offset="1"
         style="stop-color:#7c7c7c;stop-opacity:1" />
    </linearGradient>
    <inkscape:path-effect
       is_visible="true"
       id="path-effect28974-8"
       effect="spiro" />
    <clipPath
       id="clipPath29028-5"
       clipPathUnits="userSpaceOnUse">
      <path
         sodipodi:nodetypes="aaaaaaaa"
         inkscape:connector-curvature="0"
         inkscape:original-d="m 85.75,122.36218 c -2.54738,2.12715 -5.20812,4.59907 -6.25,7.75 -1.30914,3.95917 -1.63336,8.91703 0.5,12.5 3.91901,6.58194 12.38353,13.85135 19.75,11.75 4.87452,-1.3905 6.10748,-8.51023 7,-13.5 0.59149,-3.30679 0.59578,-7.19325 -1.25,-10 -3.61233,-5.49303 -10.4265,-9.89357 -17,-10 -1.04403,-0.0169 -1.94852,0.83074 -2.75,1.5 z"
         id="path29030-7"
         d="m 85.75,122.36218 c -2.780425,1.91023 -5.110569,4.57487 -6.25,7.75 -1.436029,4.00163 -0.885838,8.48071 0.5,12.5 1.419488,4.11688 3.793788,8.04098 7.37932,10.51234 1.792766,1.23567 3.868091,2.08301 6.030402,2.33859 2.162311,0.25558 4.409274,-0.0949 6.340278,-1.10093 2.35312,-1.22596 4.14782,-3.37278 5.26217,-5.78076 1.11436,-2.40798 1.5888,-5.0701 1.73783,-7.71924 0.18989,-3.37546 -0.14047,-6.80646 -1.25,-10 -1.20527,-3.46909 -3.39005,-6.67055 -6.472754,-8.6666 -1.541351,-0.99803 -3.291947,-1.68356 -5.110883,-1.93515 -1.818936,-0.25158 -3.704766,-0.0633 -5.416363,0.60175 -0.975471,0.37901 -1.887438,0.9074 -2.75,1.5"
         style="fill:url(#radialGradient29032);fill-opacity:1;stroke:none" />
    </clipPath>
    <inkscape:path-effect
       is_visible="true"
       id="path-effect28881-6"
       effect="spiro" />
    <linearGradient
       id="linearGradient28935-8">
      <stop
         id="stop28937-7"
         offset="0"
         style="stop-color:#949494;stop-opacity:0.39215687;" />
      <stop
         style="stop-color:#949494;stop-opacity:1;"
         offset="0.5"
         id="stop28943-3" />
      <stop
         id="stop28939-8"
         offset="1"
         style="stop-color:#949494;stop-opacity:0.39215687;" />
    </linearGradient>
    <linearGradient
       id="linearGradient28853-5">
      <stop
         id="stop28855-3"
         offset="0"
         style="stop-color:#020204;stop-opacity:1" />
      <stop
         style="stop-color:#020204;stop-opacity:1"
         offset="0.73448181"
         id="stop28865-0" />
      <stop
         id="stop28857-9"
         offset="1"
         style="stop-color:#5c5c5c;stop-opacity:1;" />
    </linearGradient>
    <inkscape:path-effect
       is_visible="true"
       id="path-effect28851-0"
       effect="spiro" />
    <inkscape:path-effect
       is_visible="true"
       id="path-effect28273-4-2"
       effect="spiro" />
    <linearGradient
       id="linearGradient28799-3">
      <stop
         id="stop28801-6"
         offset="0"
         style="stop-color:#fefefc;stop-opacity:1;" />
      <stop
         style="stop-color:#fefefc;stop-opacity:1"
         offset="0.75733864"
         id="stop28807-7" />
      <stop
         id="stop28803-0"
         offset="1"
         style="stop-color:#d4d4d4;stop-opacity:1" />
    </linearGradient>
    <inkscape:path-effect
       is_visible="true"
       id="path-effect28797-81"
       effect="spiro" />
    <linearGradient
       id="linearGradient28799-5-5">
      <stop
         id="stop28801-1-9"
         offset="0"
         style="stop-color:#fefefc;stop-opacity:1;" />
      <stop
         style="stop-color:#fefefc;stop-opacity:1"
         offset="0.75733864"
         id="stop28807-2-6" />
      <stop
         id="stop28803-6-3"
         offset="1"
         style="stop-color:#d4d4d4;stop-opacity:1" />
    </linearGradient>
    <inkscape:path-effect
       is_visible="true"
       id="path-effect28797-8-1"
       effect="spiro" />
    <inkscape:path-effect
       is_visible="true"
       id="path-effect28463-0-7"
       effect="spiro" />
    <inkscape:path-effect
       is_visible="true"
       id="path-effect28463-8-0"
       effect="spiro" />
    <inkscape:path-effect
       is_visible="true"
       id="path-effect29721-2"
       effect="spiro" />
    <inkscape:path-effect
       is_visible="true"
       id="path-effect28714-5"
       effect="spiro" />
    <inkscape:path-effect
       is_visible="true"
       id="path-effect29678-4-6"
       effect="spiro" />
    <inkscape:path-effect
       is_visible="true"
       id="path-effect29678-1"
       effect="spiro" />
    <inkscape:path-effect
       is_visible="true"
       id="path-effect29672-0"
       effect="spiro" />
  </defs>
  <metadata
     id="metadata27455">
    <rdf:RDF>
      <cc:Work
         rdf:about="">
        <dc:format>image/svg+xml</dc:format>
        <dc:type
           rdf:resource="http://purl.org/dc/dcmitype/StillImage" />
        <dc:title>Tux</dc:title>
        <dc:date>20 June 2012</dc:date>
        <dc:creator>
          <cc:Agent>
            <dc:title>Garrett LeSage</dc:title>
          </cc:Agent>
        </dc:creator>
        <cc:license
           rdf:resource="http://creativecommons.org/publicdomain/zero/1.0/" />
        <dc:contributor>
          <cc:Agent>
            <dc:title>Larry Ewing, the creator of the original Tux graphic</dc:title>
          </cc:Agent>
        </dc:contributor>
        <dc:subject>
          <rdf:Bag>
            <rdf:li>tux</rdf:li>
            <rdf:li>Linux</rdf:li>
            <rdf:li>penguin</rdf:li>
            <rdf:li>logo</rdf:li>
          </rdf:Bag>
        </dc:subject>
        <dc:rights>
          <cc:Agent>
            <dc:title>Larry Ewing, Garrett LeSage</dc:title>
          </cc:Agent>
        </dc:rights>
        <dc:source>https://github.com/garrett/Tux</dc:source>
      </cc:Work>
      <cc:License
         rdf:about="http://creativecommons.org/publicdomain/zero/1.0/">
        <cc:permits
           rdf:resource="http://creativecommons.org/ns#Reproduction" />
        <cc:permits
           rdf:resource="http://creativecommons.org/ns#Distribution" />
        <cc:permits
           rdf:resource="http://creativecommons.org/ns#DerivativeWorks" />
      </cc:License>
    </rdf:RDF>
  </metadata>
  <g
     transform="translate(160,342.63782)"
     id="layer1"
     inkscape:groupmode="layer"
     inkscape:label="Layer 1">
    <g
       id="g4472"
       transform="matrix(0.32847095,0,0,0.32847095,182.2226,-19.869582)">
      <path
         d="m -330.3997,-790.23646 c -19.3555,38.25873 -32.0967,85.29675 -33.2061,142.99693 -4.7038,244.74408 10.6435,206.89182 1.1754,319.19681 -4.3527,51.6261 -10.1455,70.7934 -36.4152,133.06175 -28.5836,67.7534 -59.2308,106.327028 -101.7587,165.687496 -52.7523,73.631746 -125.4638,174.508164 -165.2705,255.366694 -22.7554,45.88265 -41.7497,115.83618 -48.8266,162.25853 -4.7318,31.03068 -5.2812,71.15347 -4.2214,108.75552 -28.0552,24.37291 -42.4649,65.42361 -71.2927,96.71902 -18.5945,20.1388 -54.535,26.67969 -94.3689,34.39522 -34.176,6.54087 -70.337,19.84404 -82.9779,40.20302 -1.4114,2.27138 -2.6868,4.62636 -3.8576,7.04634 -28.783,55.41719 6.4443,150.52968 -10.7364,220.88951 -7.2759,29.91353 -19.6971,58.0626 -19.9191,83.85989 -0.077,13.30356 2.93957,27.41413 12.2016,43.43663 10.1416,17.6399 32.4122,30.2067 64.0896,41.1582 29.5462,10.2164 67.9122,19.1834 112.5244,29.6935 l 15.4346,3.6012 c 20.0644,4.7781 40.0551,9.5548 60.2674,13.5978 13.1556,2.7194 20.8005,4.0416 27.3389,5.2185 28.4429,5.0712 39.2472,7.0554 115.0963,36.6742 18.3012,7.1299 38.5858,14.7729 60.0468,21.3136 42.4076,13.1561 90.3277,22.7111 134.5745,14.7003 22.4174,-4.0415 43.5837,-12.5685 62.3982,-27.2669 19.4766,-15.2129 38.2188,-35.7194 51.5218,-56.5182 3.5561,-5.5472 6.8452,-11.2886 9.7237,-17.1973 2.5233,-4.9862 4.7634,-10.0951 6.6331,-15.3098 1.7835,-4.7532 3.2691,-9.6848 4.3526,-14.635 17.846,-8.899 62.0057,-22.3263 167.1491,-23.3435 158.4596,-1.5442 264.0011,55.6378 264.0011,55.6378 l 0.077,-1.1748 c 1.3221,7.4971 2.9393,14.4779 4.9987,21.1663 3.0135,9.7749 7.0554,18.7419 12.4937,27.4144 5.5129,8.5993 12.3478,16.7575 21.0211,24.7695 9.407,8.6726 20.7254,16.6846 33.6617,23.5199 12.0541,6.321 25.5772,11.6119 40.4233,15.5079 13.5231,3.5285 28.1492,5.8805 43.6564,6.6153 14.4796,0.7348 29.6189,0.076 45.4218,-2.2048 26.6788,-3.8216 47.2583,-12.2737 64.9703,-23.2252 17.2719,-10.6566 31.3837,-23.4454 45.7891,-36.5272 l 0.4418,-0.3672 0,0 c 9.4812,-8.5998 19.1092,-17.3452 29.766,-25.3572 7.1284,-5.3656 13.6707,-10.364 19.9182,-15.2133 9.261,-7.1296 14.4061,-11.1716 19.6243,-15.2878 15.6551,-12.2737 31.8225,-25.0622 47.9927,-37.1162 16.7581,-12.4213 34.5436,-25.0625 53.8742,-37.4092 14.6257,-9.4073 31.0888,-20.06422 46.891,-30.42649 16.3172,-10.73128 33.367,-21.97577 49.4627,-33.00018 28.7488,-19.52667 68.4263,-43.72872 83.4568,-75.1655 5.0198,-9.72482 7.7153,-20.14888 6.9867,-31.35384 -2.3514,-35.93933 -44.9072,-68.35183 -82.5362,-100.54441 -18.3016,-15.72792 -36.7489,-31.30898 -46.3763,-47.25854 -7.7904,-12.86129 -17.1993,-32.26506 -19.8438,-46.37614 -7.4279,-39.13141 -7.2692,-68.36502 -25.7973,-94.21407 -17.0032,-23.72224 -31.8654,-30.54618 -58.0729,-33.50703 -3.9283,-0.44372 -7.6215,-0.99494 -11.2014,-1.57675 17.0258,-62.67999 22.6869,-102.6182 17.7167,-154.98171 C 592.6829,184.22825 475.2208,49.914284 411.3452,-41.018702 369.6486,-100.37779 321.3333,-161.47573 300.4882,-202.15923 c -20.8454,-40.68354 -36.3661,-97.28013 -46.525,-130.0638 -10.0062,-32.29146 -15.2935,-109.10157 -16.6118,-233.6769 4.7027,-190.87234 -54.3884,-278.99388 -125.9006,-333.96996 -71.5131,-54.97583 -176.4671,-54.09383 -214.3176,-50.78693 l 0,0 0,0 0,-9e-4 c -31.7332,2.7668 -165.2245,34.78838 -227.5281,160.4217 z"
         style="fill:#191919;fill-opacity:1;fill-rule:evenodd;stroke:none"
         id="path4734"
         inkscape:connector-curvature="0"
         sodipodi:nodetypes="csssscccccccccccccccccccccccccccccccccccccccccccccccccsccsszscscccccc" />
      <path
         d="m -806.0482,629.29998 c -37.6053,18.06781 -124.1999,17.70035 -145.2072,53.69075 -23.0618,39.58736 -8.1517,83.43682 -7.9319,133.96986 0.077,35.76835 -0.5145,75.57886 -15.5696,117.95775 -12.3405,34.88877 -16.5267,47.22717 1.1733,77.92906 17.7007,30.7753 94.527,45.5385 198.4558,70.3645 104.0028,24.7529 70.8774,6.4634 187.2936,51.9273 72.1252,28.2031 173.924,62.7986 239.8807,11.3114 24.312,-19.0238 64.193,-62.0629 66.6179,-104.0022 1.3956,-23.9446 -0.8087,-49.50456 -6.5366,-65.00202 -19.0237,-51.71063 -57.0697,-73.81736 -93.2047,-127.87524 C -447.2548,749.16682 -517.5444,653.9786 -573.7326,570.39452 -613.3945,511.2691 -645.271,496.946 -672.227,501.64663 c -82.8495,14.61571 -56.1137,90.34028 -133.8224,127.65335 l 0,0 0,0 0,0 z"
         style="fill:#fcc624;fill-rule:evenodd;stroke:none"
         id="path4736"
         inkscape:connector-curvature="0" />
      <path
         d="m 247.7612,543.81785 c -36.4929,25.78114 -28.5889,103.05302 -30.7301,143.75629 -3.2503,62.27526 -3.6951,131.71529 -5.8354,159.3433 -3.5472,45.72648 -38.1929,149.00112 -33.9807,197.75706 4.1369,48.6827 7.6819,77.1971 37.9695,105.1212 30.3608,27.9237 83.772,48.7554 149.74,39.2256 65.9686,-9.5303 90.9356,-50.5295 133.7094,-82.5891 42.6975,-32.0608 86.6534,-70.1053 143.0916,-106.3032 56.4375,-36.27143 147.3027,-95.66578 160.3775,-111.69548 13.0752,-16.10423 21.9401,-29.9912 12.4848,-51.11971 -9.3819,-21.12843 -42.3285,-53.77992 -78.3055,-83.47698 -93.8173,-77.56631 -53.3143,-149.66812 -92.4879,-187.78438 -11.9507,-12.87671 -20.8322,-19.97314 -34.7031,-22.7975 -74.8755,-15.24886 -95.4454,14.16046 -139.4106,9.83955 -47.4052,-4.65795 -29.5836,5.76396 -126.8979,-7.22177 -33.4981,-3.80511 -71.8974,-17.06923 -95.0216,-2.05801 l 0,0 z"
         style="fill:#fcc624;fill-rule:evenodd;stroke:none"
         id="path4738"
         inkscape:connector-curvature="0" />
      <path
         d="m -363.9999,-47.994832 c -33.448,73.143084 -31.8078,48.290216 -54.2857,124.743133 -31.2167,28.325979 -65.44,104.431099 -87.971,169.940179 -28.7738,95.20853 -50.3919,193.1009 -23.5204,306.97301 10.6584,11.57628 19.3111,22.52342 29.0191,31.71838 15.4199,14.60472 32.0229,26.44465 52.3054,41.86146 71.7794,54.55221 122.0846,83.35709 131.9832,118.83373 13.1763,47.22386 -16.359,78.45373 -53.1868,97.65598 26.9272,26.94121 112.8859,82.13598 269.6317,75.238 138.0426,-6.07429 224.6077,-58.31842 298.503,-148.45864 0.4727,-20.74234 2.7429,-55.45358 3.7706,-92.9212 0.981,-35.7821 1.1871,-71.6159 6.6638,-99.40646 1.2885,-6.54045 3.7555,-12.73305 5.9637,-18.17979 9.0153,-22.23871 33.28,-37.3885 56.4989,-38.48045 12.2074,-0.57435 25.0211,-1.45761 37.2719,1.08392 C 327.3776,376.24425 312.5464,275.18768 238.5766,120.18049 232.8462,109.30944 205.4412,63.203157 189.0813,50.190325 176.2963,-12.358354 174.6104,-9.28953 149.0335,-66.549942 110.242,-153.38842 96.1843,-253.76236 84.357,-312.74721 c -8.0797,4.18665 -22.1833,10.06372 -43.7073,26.73909 -15.6448,12.19428 -44.5869,37.53568 -66.7705,52.8877 -14.4853,10.02817 -30.3384,18.69907 -45.9352,25.48863 -22.4454,9.7742 -44.3569,15.65457 -60.8705,16.08805 -59.197,3.13028 -87.3561,-11.53097 -114.3466,-39.65808 -11.3204,-11.79796 -19.896,-24.72347 -34.1768,-40.49449 -6.3275,-6.98681 -15.0823,-16.26926 -24.0083,-22.64789 -0.2432,7.75206 -25.0947,173.20637 -58.5417,246.349368 z M 81.2721,-326.19036 c 0.1472,-0.1475 0.2208,-0.36726 0.3673,-0.51448 -0.1472,0.14719 -0.2208,0.3672 -0.3673,0.51448 z M -98.3292,-484.8568 c -1.8354,-16.30807 -2.3505,-46.1306 8.9625,-83.6662 17.4818,-57.59043 80.6557,-96.15341 134.1316,-68.97588 53.4771,27.17916 63.3563,97.74196 50.5378,137.51004 -7.8781,24.44196 -26.5755,53.03492 -40.6957,70.95912 -10.9448,-4.48096 -24.4615,-9.40208 -41.2815,-15.2048 9.6958,-5.58276 18.3636,-14.39759 24.7551,-26.07745 17.7026,-32.24745 11.3854,-74.19137 -13.9573,-93.72999 -25.4153,-19.54027 -60.3083,-9.18213 -77.9382,23.06529 -12.3395,22.47808 -13.0012,49.72993 -3.6717,70.73911 -15.059,-5.80275 -28.2065,-10.79823 -40.8426,-14.61758 l 0,0 0,0 0,-10e-4 z m -196.1276,-138.3917 c 50.0978,-17.48251 80.0672,24.46141 92.2615,84.47352 3.6736,18.43862 3.9667,36.87563 1.763,53.77095 -1.3956,0.44 -2.7901,1.02882 -4.2613,1.61613 -5.8771,2.27771 -12.1944,5.14264 -19.1704,8.7421 1.1007,-3.89381 1.9096,-8.08045 2.4228,-12.48711 3.9668,-33.56906 -11.8995,-68.31421 -35.4798,-77.49624 -23.5795,-9.18213 -45.9109,10.65094 -49.8773,44.21998 -3.8189,32.24744 10.651,65.52362 32.6147,76.24745 -2.7921,1.91044 -5.6568,3.89383 -8.5206,5.94993 -3.6736,2.49773 -7.3457,5.21544 -10.945,8.00597 -17.4106,-16.82249 -29.088,-43.92716 -35.6997,-72.42796 -11.9741,-51.7133 0.9538,-108.78928 34.891,-120.61472 l 0,0 0,0 0,0 z"
         style="fill:#f5f5f5;fill-rule:evenodd;stroke:none"
         id="path4740"
         inkscape:connector-curvature="0" />
      <path
         d="m 213.7833,777.13775 c 1.7119,35.60845 6.9764,74.31567 4.8946,108.04463 -4.7029,76.19919 -2.7188,177.52582 23.0284,209.87162 47.2676,59.3793 110.1485,57.3618 192.0281,28.3914 42.9423,-15.194 72.2097,-33.3695 126.9085,-66.5191 2.66,-1.6118 5.2953,-3.2135 7.905,-4.8036 -24.7335,18.997 -47.4974,37.478 -69.9129,54.31 -42.7749,32.0593 -67.7419,73.0587 -133.7105,82.5888 -65.968,9.5301 -119.3792,-11.3019 -149.739,-39.2256 -30.2886,-27.9236 -33.8336,-56.4382 -37.9705,-105.1209 -1.5875,-18.3721 2.3432,-44.486 8.0483,-72.3448 9.4348,-46.07188 23.7223,-96.91688 25.9324,-125.41225 1.1093,-14.3103 1.7628,-39.84014 2.5876,-69.7802 z"
         style="fill:#e09d00;fill-rule:evenodd;stroke:none"
         id="path4742"
         inkscape:connector-curvature="0" />
      <path
         d="m -982.4892,958.28809 c 3.7879,16.11872 14.1849,46.31161 40.6974,61.26471 37.2015,20.9813 155.9321,42.0732 277.6039,63.8315 121.6727,21.7586 164.7961,63.916 252.5856,42.1577 169.7714,-42.0786 80.1649,-203.82842 90.8682,-199.9082 l 3.1575,1.15781 c 11.9677,14.81609 22.2837,30.48298 29.7044,50.65519 5.7286,15.49725 7.9333,41.0572 6.5366,65.0018 -2.4239,41.9396 -42.3059,84.9787 -66.6179,104.002 -65.9555,51.4875 -167.7546,16.8919 -239.8794,-11.3114 -116.4175,-45.4637 -83.2921,-27.1744 -187.2939,-51.9273 -103.9291,-24.8258 -180.7551,-39.5887 -198.4558,-70.3642 -13.0953,-22.71451 -14.2092,-35.37925 -8.9066,-54.55961 z m 643.9091,204.40981 -0.6359,0.9221 -0.7577,0.143 c 0.466,-0.3512 0.9305,-0.7067 1.3936,-1.0652 z"
         style="fill:#e09d00;fill-rule:evenodd;stroke:none"
         id="path4744"
         inkscape:connector-curvature="0" />
      <path
         d="m 267.989,537.2359 c -8.4147,207.35579 81.2538,247.70982 179.9066,157.45689 22.0139,-20.13913 44.5079,-62.80184 66.4204,-93.53652 3.6969,-5.18462 6.9719,-11.08444 9.869,-17.33285 -9.5721,15.76033 -20.7773,32.00424 -34.2374,47.10488 -43.0981,48.35136 -116.1074,80.40616 -164.3171,57.94948 -41.7928,-19.46759 -57.3215,-101.24189 -55.6637,-151.82004 -0.6649,0.0505 -1.3241,0.11006 -1.9778,0.17822 z"
         style="fill:#e09d00;fill-rule:evenodd;stroke:none"
         id="path4746"
         inkscape:connector-curvature="0" />
      <path
         d="m 81.2721,-326.19006 c 0.1472,-0.14751 0.2208,-0.3673 0.3673,-0.51446 -0.1472,0.14719 -0.2208,0.36717 -0.3673,0.51446 z m -391.9885,10.55811 c 0.8469,0.89606 0.5309,2.48269 1.4737,3.4214 11.0834,11.03895 23.9022,21.85948 35.0786,34.52017 12.8499,14.55778 24.6269,30.84121 35.5643,40.81886 20.1107,18.34675 39.2165,28.15149 67.1276,31.59627 53.9042,6.65334 94.2067,-8.29394 139.6639,-38.27386 21.3893,-14.11156 51.0075,-40.12911 68.1326,-52.9915 28.5161,-21.46206 36.6742,-19.77167 45.1264,-30.57415 8.7465,-11.24443 13.0088,-40.64306 10.4369,-54.53426 -2.0577,-10.73115 -5.8057,-17.85931 -17.4188,-25.20954 -12.9366,-8.15773 -35.2052,-16.75658 -73.7917,-29.83898 l -0.077,-0.0729 -0.074,0 -0.077,-0.0726 -0.1473,0 -0.077,-0.0733 -0.077,0 -0.077,0 -0.1472,-0.0726 -0.077,0 -0.077,-0.0733 -0.1472,0 0,0 -0.077,-0.0723 -0.077,0 -0.077,0 -0.144,-0.0733 -0.077,0 -0.077,-0.0729 -0.1472,0 -0.077,-0.0733 -0.077,0 -0.077,-0.0723 -0.144,0 0,0 -0.077,0 -0.077,-0.0729 -0.077,0 -0.144,-0.0733 -0.077,0 -0.077,-0.0723 -0.077,0 -0.144,0 -0.077,-0.0729 -0.074,0 -0.1472,-0.0733 0,0 -0.077,0 -0.077,-0.0723 -0.077,0 -0.1473,-0.0726 -0.077,0 -0.077,0 -0.077,-0.0732 -0.1471,0 -0.077,-0.0726 -0.077,0 -0.077,-0.0729 -0.077,0 -0.077,0 -0.077,0 -0.077,-0.0729 -0.077,0 -0.1471,-0.0729 -0.077,0 -0.077,-0.0726 -0.077,0 -0.144,0 -0.077,-0.0733 -0.077,0 -0.077,-0.0726 -0.077,0 -0.077,0 -0.077,-0.0729 -0.077,0 -0.077,0 -0.1472,-0.0726 -0.077,0 -0.077,-0.0729 -0.077,0 -0.3674,-0.14687 -0.9554,-0.36804 -0.144,0 -0.663,-0.2195 -0.2176,-0.0733 -0.5152,-0.22046 -0.5151,-0.1472 -0.1472,-0.0723 -0.7343,-0.22078 -0.1472,-0.0723 -0.9551,-0.36755 -0.2177,-0.0726 -0.7356,-0.21982 -0.077,-0.0726 -0.9552,-0.29341 -0.2944,-0.14719 -0.7353,-0.21982 0,0 -0.9541,-0.36717 -0.9545,-0.36801 -0.077,0 -0.662,-0.21949 -0.2911,-0.0733 -0.4419,-0.22046 -0.5152,-0.14687 -0.1471,-0.0726 -0.6627,-0.21983 -0.1473,-0.0733 -0.9547,-0.36727 -0.2176,-0.0726 -0.662,-0.22047 -0.077,0 -0.5146,-0.21982 -0.4403,-0.14719 -0.2176,-0.0733 -0.6623,-0.29246 0,0 -0.9545,-0.2947 -0.3683,-0.1475 -0.5878,-0.21983 -0.077,0 -0.5878,-0.29437 -0.2176,-0.0726 -0.9558,-0.29533 -0.1471,-0.0729 -0.5888,-0.2195 -0.144,-0.0733 -0.5142,-0.14719 -0.4425,-0.14719 -0.1472,-0.0726 -0.6617,-0.29437 -0.077,0 -0.5151,-0.22046 -0.3673,-0.14751 -0.2912,-0.0723 -0.5878,-0.22046 -0.077,0 -0.8825,-0.36718 -0.8812,-0.2947 -0.077,-0.0729 -0.5876,-0.22046 -0.2207,-0.0723 -0.3673,-0.14686 -0.5139,-0.14751 -0.077,-0.0733 -0.662,-0.21951 -0.1473,-0.0726 -0.4399,-0.14751 -0.4425,-0.14751 -0.144,-0.0723 -0.5878,-0.22047 -0.144,-0.0729 -0.4406,-0.14751 -0.3674,-0.14687 -0.2943,-0.0729 -0.5878,-0.29438 0,0 -0.5878,-0.22078 -0.2944,-0.0726 -0.8098,-0.3672 -0.077,0 -0.5875,-0.22047 -0.2207,-0.0723 -0.3673,-0.14718 -0.4406,-0.14783 -0.077,-0.0729 -0.5876,-0.21918 -0.2175,-0.0733 -0.8099,-0.29437 -0.1472,-0.0733 -0.5865,-0.22047 -0.077,0 -0.5139,-0.21982 -0.2944,-0.14751 -0.2176,-0.0729 -0.5868,-0.21982 -0.077,0 -0.1472,-0.0733 -0.1472,-0.0726 -0.2208,-0.0723 -0.144,-0.0729 -0.1471,0 0,-0.0733 -0.2209,0 -0.1471,-0.0729 -0.2176,-0.0726 -0.1472,-0.0729 -0.077,-0.0733 -0.2944,-0.0726 -0.1472,-0.0723 -0.2175,-0.0733 -0.1473,-0.0733 0,0 -0.2208,-0.0726 -0.1472,-0.0723 -0.1439,-0.0733 -0.2209,-0.0729 -0.077,0 -0.077,-0.0726 -0.2176,0 -0.1471,-0.0723 -0.1473,-0.0733 -0.2207,-0.0726 0,0 -0.144,-0.0723 -0.2208,-0.0726 -0.1471,-0.0733 -0.2944,-0.0726 -0.077,-0.0723 -0.1472,-0.0733 -0.2207,-0.0729 -0.1473,-0.0729 -0.1471,-0.0723 -0.074,0 -0.1472,0 -0.1472,-0.0736 -0.1471,-0.0729 -0.2208,-0.0726 -0.077,-0.0723 -0.077,0 -0.1471,-0.0733 -0.2209,-0.0729 -0.1439,-0.0726 -0.2176,-0.0723 0,0 -0.1473,-0.0733 -0.1471,-0.0729 -0.2176,0 -0.1472,-0.0729 -0.1472,-0.0726 0,0 -0.2208,-0.0729 -0.1471,-0.0726 -0.1473,-0.0723 -0.2207,-0.0733 0,0 -0.1472,-0.0729 -0.1472,-0.0723 -0.2208,-0.0736 -0.1471,-0.0729 -0.144,0 0,0 -0.2208,-0.0723 -0.1472,-0.0733 -0.1472,-0.0723 -0.1472,-0.0726 -0.077,0 -0.144,-0.0732 -0.1472,-0.0726 -0.1472,-0.0723 -0.2175,-0.0733 -0.1473,0 c -39.1732,-15.21346 -64.6029,-25.06274 -100.322,-23.88715 -12.4214,0.36713 -25.063,1.76427 -42.8491,8.81927 l -0.8826,0.36756 0,0 -0.8824,0.29341 0,0.0726 -0.7344,0.29469 -0.1472,0 0,0.0723 -0.077,0 -0.8098,0.29533 0,0.0723 -0.6614,0.2195 -0.441,0.22079 -0.5138,0.21982 -0.1472,0.0726 -0.077,0 -0.7334,0.29469 -0.1471,0.0729 -0.074,0.0726 0,0 -0.8082,0.36716 0,0 -0.077,0 -0.7356,0.36756 -0.144,0 -0.077,0.0726 -0.5152,0.22047 -0.1471,0.0733 -0.2944,0.14655 -0.7347,0.36804 -0.077,0 -0.1473,0.0726 -0.5151,0.21982 -0.2912,0.14751 -0.144,0.0729 -0.5151,0.21982 -0.1472,0.0729 -0.2944,0.14719 0,0 -0.5152,0.22047 -0.2944,0.1475 -0.2207,0.14719 -0.5136,0.2195 -0.077,0 -0.3674,0.22046 -0.5151,0.22015 -0.5151,0.2931 -0.5139,0.21982 0,0 -0.5151,0.29373 -0.5143,0.21919 -0.077,0.0733 -0.3674,0.14719 -0.077,0.0732 -0.5151,0.21951 0,0 -0.5139,0.29501 -0.5152,0.21951 -0.4399,0.29501 -0.077,0 -0.5152,0.29438 -0.077,0 -0.3673,0.22046 -0.077,0 -0.5878,0.29437 -0.4399,0.29471 -0.077,0 -0.5142,0.29437 -0.5152,0.2947 -0.5875,0.29277 -0.5152,0.22047 0,0.0726 -0.5878,0.29438 0,0 -0.5142,0.22047 0,0.0723 -0.5875,0.29469 -0.4399,0.21983 -0.077,0.0736 -0.5877,0.29246 -0.5138,0.29469 0,0 -0.5879,0.29406 -0.5878,0.36756 0,0 c -1.1026,0.58802 -2.2788,1.24957 -3.4541,1.91185 l -0.5878,0.36682 -0.5875,0.29533 0,0 -0.367,0.21983 -0.6623,0.44194 -0.3674,0.21983 -0.077,0 -0.077,0.0723 -0.5871,0.2947 -0.3673,0.22078 -0.2944,0.21951 -0.7357,0.44083 -0.367,0.21949 -0.7346,0.36757 -0.3683,0.21982 -1.1017,0.66238 -0.3673,0.2195 -0.7347,0.44035 -0.368,0.2947 -0.8089,0.44041 -0.3674,0.2195 -0.955,0.58793 -0.077,0.0726 -0.077,0 -0.3673,0.22015 -0.8079,0.51439 -0.3674,0.22078 -0.7346,0.44 0,0 -0.077,0.0736 -0.077,0 0,0.072 -0.077,0 -0.077,0.0726 -0.077,0 0,0.0736 -0.077,0 -0.077,0.0723 -0.1473,0.0723 -0.077,0 -0.3673,0.2931 -0.077,0 -0.077,0.072 0,0 -0.077,0.0733 -0.077,0 -0.077,0 0,0.0733 -0.077,0 -0.077,0.072 -0.077,0 0,0.0736 -0.077,0 -0.8812,0.58753 -0.077,0 -0.077,0.0729 -0.3673,0.21982 -0.8098,0.51436 -0.3674,0.22078 -0.077,0.0729 -0.7346,0.44042 -0.4416,0.2947 -0.3684,0.21982 -0.4415,0.2947 -0.3673,0.21982 -0.4406,0.29437 -0.8092,0.51475 -0.4406,0.29469 -0.809,0.51481 -0.3673,0.29438 -0.4406,0.21982 -0.4396,0.2947 -0.3674,0.29374 -0.4409,0.21949 -0.4406,0.29246 -0.439,0.2947 -0.3673,0.2947 -0.2944,0.14718 -0.5142,0.36718 -0.2944,0.14751 -0.2912,0.22046 -0.2943,0.14719 -0.2208,0.21982 -0.2944,0.14718 -0.2944,0.21983 -0.2944,0.14751 -0.2207,0.21982 -0.5875,0.36766 -0.2911,0.14718 -0.2176,0.21982 -0.2944,0.14752 -0.2944,0.21982 -0.077,0 -0.2208,0.14718 -0.2944,0.22047 -0.2176,0.14718 -0.2944,0.21982 -0.2944,0.21983 -0.2944,0.14719 -0.2943,0.22111 -0.2944,0.14686 -0.2943,0.2195 -0.2209,0.22079 -0.2175,0.0723 -0.077,0.0729 -0.2944,0.22047 -0.5875,0.36714 -0.2944,0.22046 -0.2943,0.14719 -0.2944,0.21982 -0.2944,0.21982 -0.2912,0.14719 -0.2944,0.22046 -0.5151,0.44006 -0.2944,0.14752 -0.2943,0.21982 -0.2944,0.22046 -0.2944,0.14719 -0.077,0.0726 -0.2208,0.14687 -0.2943,0.22078 -0.2944,0.21951 -0.2943,0.14751 -0.2944,0.21982 -0.1472,0.0733 -0.1472,0.14687 -0.2944,0.22046 -0.367,0.21982 -0.5142,0.36752 -0.077,0 -0.144,0.1472 -0.1472,0.0726 -0.2944,0.21983 -0.2943,0.22046 -0.5876,0.3672 -0.2207,0.22046 -0.074,0 -0.2912,0.21951 -1.2498,0.88277 c -18.227,12.71555 -36.8966,29.61858 -47.6999,46.96561 -6.4037,10.26387 -16.5395,31.44128 -7.0843,43.61777 0.032,0.0319 24.1498,12.38994 48.3658,26.71006 39.1486,23.14965 83.8687,35.10657 123.7961,32.88267 31.7569,-1.76866 67.2034,-11.79914 92.7994,-24.11849 25.7602,-12.39973 57.4359,-31.95494 88.3103,-55.77797 4.7782,-3.52824 13.8789,-12.46536 19.5693,-15.1614 5.0172,-2.37696 21.1904,-0.99826 20.4474,4.49439 -0.5811,4.30102 -19.5751,11.97731 -26.4213,17.06241 -33.7734,25.08429 -71.3746,49.65302 -95.8139,60.91709 -25.2496,11.63743 -67.7455,25.07407 -96.468,26.76908 -26.2393,1.54826 -48.521,-1.36272 -71.332,-9.07571 -22.0521,-7.45695 -35.1253,-13.93222 -58.6066,-27.49372 -7.4888,-4.32536 -14.6882,-7.9358 -24.823,-14.26426 z"
         style="fill:#fcc624;fill-rule:evenodd;stroke:none"
         id="path4748"
         inkscape:connector-curvature="0" />
      <path
         d="m 71.0952,-325.89763 c -0.5003,0 -20.3004,9.67926 -45.867,28.01159 -22.603,16.20709 -49.3879,41.24871 -76.0882,52.53851 -56.9014,24.06023 -91.8423,25.32819 -115.932,20.32638 -24.0893,-5.00204 -30.1125,-20.32638 -36.887,-39.89925 -0.3405,-0.98338 -0.8537,-1.97457 -1.5075,-2.96962 -7.4121,-1.50088 -14.7278,-3.49154 -22.1003,-5.98398 -22.0524,-7.45692 -35.1256,-13.93219 -58.6066,-27.49368 -7.4887,-4.3254 -14.6885,-7.9358 -24.823,-14.26427 0.8469,0.89606 0.5309,2.48269 1.4737,3.4214 11.0834,11.03895 23.9022,21.85948 35.0786,34.52017 6.9262,7.84691 13.5407,16.19455 19.8801,23.78621 l 30.1586,28.81813 c 15.337,10.90849 31.4564,17.19465 52.6532,19.81079 53.9042,6.65334 94.2067,-8.29394 139.6639,-38.27386 21.3893,-14.11156 51.0075,-40.12911 68.1326,-52.9915 20.5171,-15.44129 30.4949,-18.8983 37.6265,-23.64561 l -2.8556,-5.71141 z m -353.8266,13.70283 c 0.7078,-13.05933 7.0285,-50.27082 51.9502,-101.78135 44.392,-50.90257 56.2058,-63.64318 59.2286,-66.76469 -2.1607,0.28958 -4.3753,0.65336 -6.6667,1.10896 l -15.5078,4.24428 c -2.0671,0.7129 -4.2058,1.50443 -6.4236,2.38439 l -0.8821,0.36759 0,0 -0.8826,0.2931 0,0.0726 -0.7346,0.2947 -0.1472,0 0,0.0723 -0.077,0 -0.8098,0.29534 0,0.0723 -0.6608,0.21949 -0.4409,0.22079 -0.5143,0.21982 -0.1471,0.0729 -0.077,0 -0.7338,0.2947 -0.1471,0.0729 -0.077,0.0729 0,0 -0.8076,0.36721 0,0 -0.077,0 -0.7354,0.36752 -0.1471,0 -0.077,0.0723 -0.5151,0.22047 -0.1473,0.0732 -0.2944,0.14656 -0.7346,0.36796 -0.077,0 -0.1471,0.0723 -0.5152,0.21982 -0.2943,0.1475 -0.1473,0.0729 -0.5151,0.21982 -0.1472,0.0729 -0.2944,0.14718 0,0 -0.5151,0.22047 -0.2944,0.14751 -0.2208,0.14718 -0.5129,0.21951 -0.077,0 -0.3674,0.22046 -0.5148,0.22015 -0.5152,0.29309 -0.5141,0.21982 0,0 -0.5153,0.29374 -0.5144,0.21918 -0.077,0.0733 -0.3673,0.14718 -0.077,0.0733 -0.5152,0.21951 0,0 -0.5142,0.29501 -0.5151,0.21951 -0.4396,0.29501 -0.077,0 -0.5149,0.29438 -0.077,0 -0.3673,0.22046 -0.077,0 -0.5878,0.29437 -0.4393,0.2947 -0.077,0 -0.5143,0.29438 -0.5151,0.29501 -0.5878,0.29279 -0.5148,0.22046 0,0.0726 -0.5876,0.29438 0,0 -0.5144,0.22046 0,0.0726 -0.5876,0.29469 -0.4396,0.21983 -0.077,0.0736 -0.5874,0.29246 -0.5143,0.29469 0,0 -0.5877,0.29406 -0.5876,0.36755 0,0 c -1.1029,0.58802 -2.2791,1.24957 -3.4544,1.91189 l -0.5875,0.36682 -0.5877,0.29501 0,0 -0.3674,0.21982 -0.662,0.44193 -0.367,0.21982 -0.077,0 -0.077,0.0723 -0.5878,0.29502 -0.3673,0.22078 -0.2944,0.21951 -0.7353,0.44079 -0.3674,0.2195 -0.7346,0.36756 -0.3683,0.21982 -1.1017,0.66242 -0.3673,0.21949 -0.7344,0.44039 -0.3683,0.2947 -0.8088,0.44044 -0.3674,0.21982 -0.9547,0.58789 -0.077,0.0729 -0.077,0 -0.3673,0.22014 -0.808,0.51436 -0.3674,0.22078 -0.7346,0.44 0,0 -0.077,0.0736 -0.077,0 0,0.072 -0.077,0 -0.077,0.0726 -0.077,0 0,0.0736 -0.077,0 -0.077,0.0723 -0.1471,0.0723 -0.077,0 -0.367,0.2931 -0.077,0 -0.074,0.072 0,0 -0.077,0.0733 -0.077,0 -0.077,0 0,0.0733 -0.077,0 -0.077,0.072 -0.077,0 0,0.0736 -0.077,0 -0.8812,0.58757 -0.077,0 -0.077,0.0729 -0.3673,0.21982 -0.8099,0.51439 -0.3669,0.22079 -0.077,0.0729 -0.7343,0.44048 -0.442,0.29469 -0.3679,0.21951 -0.4419,0.2947 -0.3673,0.21982 -0.4406,0.29438 -0.8089,0.51474 -0.4407,0.2947 -0.8092,0.51484 -0.3673,0.29437 -0.4406,0.21982 -0.4396,0.2947 -0.3674,0.29374 -0.4409,0.21951 -0.4406,0.29245 -0.439,0.29469 -0.367,0.2947 -0.2944,0.1472 -0.5138,0.36719 -0.2944,0.14751 -0.2944,0.22047 -0.2944,0.14718 -0.2208,0.21982 -0.2944,0.1472 -0.2976,0.21982 -0.2943,0.14751 -0.2208,0.21982 -0.5875,0.36765 -0.2911,0.14719 -0.2176,0.21982 -0.2944,0.14751 -0.2944,0.21982 -0.077,0 -0.2208,0.14719 -0.2944,0.22046 -0.2176,0.1472 -0.2944,0.21982 -0.2943,0.21982 -0.2912,0.14719 -0.2944,0.2211 -0.2944,0.14687 -0.2944,0.21951 -0.2207,0.22078 -0.2175,0.0723 -0.077,0.0729 -0.2944,0.22046 -0.5875,0.36713 -0.2944,0.22047 -0.2943,0.14718 -0.2943,0.21982 -0.2944,0.21984 -0.2913,0.14718 -0.2943,0.22047 -0.5152,0.44006 -0.2944,0.1475 -0.2944,0.21982 -0.2942,0.22046 -0.2944,0.1472 -0.077,0.0726 -0.2208,0.14687 -0.2944,0.22079 -0.2944,0.21949 -0.2944,0.14751 -0.2942,0.21982 -0.1473,0.0733 -0.1471,0.14687 -0.2913,0.22046 -0.3673,0.21983 -0.5142,0.36752 -0.077,0 -0.144,0.14718 -0.1471,0.0729 -0.2944,0.21982 -0.2944,0.22046 -0.5879,0.36721 -0.2207,0.22046 -0.077,0 -0.2912,0.21951 -1.2498,0.88274 c -18.2268,12.71555 -36.8967,29.61857 -47.6999,46.96563 -6.4037,10.26385 -16.5393,31.44126 -7.0844,43.61774 0.033,0.032 23.7816,12.20119 47.8089,26.3813 z"
         style="fill:#e09d00;fill-rule:evenodd;stroke:none"
         id="path4750"
         inkscape:connector-curvature="0" />
      <path
         d="m -139.6927,-456.38994 c -1.9118,-1.98433 21.3885,-6.76252 30.574,0.44022 9.2591,7.20285 8.6722,12.86145 5.8802,15.87523 -2.9393,3.0867 -30.0607,-13.74347 -36.4542,-16.317 l 0,10e-4 z"
         style="fill:#191919;fill-opacity:1;fill-rule:evenodd;stroke:none"
         id="path4752"
         inkscape:connector-curvature="0" />
      <path
         d="m -114.1498,868.24596 c 66.7952,-2.93741 137.827,-19.566 201.0601,-56.79086 41.7482,-24.57692 79.398,-58.83402 114.1153,-100.12618 -1.0396,23.92021 -2.2207,44.87444 -2.547,59.18173 -73.8953,90.14018 -160.4604,142.38431 -298.503,148.45892 -156.7458,6.89787 -242.7045,-48.29659 -269.6307,-75.23803 17.7093,-9.77808 32.0125,-19.88932 42.532,-34.21143 -0.1728,-0.12543 87.2626,64.25413 212.9733,58.72585 z m 317.6255,-159.88 c 1.123,-1.36815 2.2417,-2.74485 3.3527,-4.13456 -1.111,1.38971 -2.2297,2.76641 -3.3527,4.13456 z"
         style="fill:#d9dadb;fill-rule:evenodd;stroke:none"
         id="path4754"
         inkscape:connector-curvature="0" />
      <path
         d="m -77.2608,-592.59967 c 0,0 41.2925,-23.76306 98.1882,-10.96766 45.3069,10.18948 70.8719,52.32673 79.4065,69.07012 0.1056,-37.88244 -15.4842,-82.62889 -55.5681,-103.00114 -42.995,-21.85082 -92.2522,-1.20057 -118.997,37.66245 l -3.0296,7.23623 z"
         style="fill:#d9dadb;fill-rule:evenodd;stroke:none"
         id="path4756"
         inkscape:connector-curvature="0" />
      <path
         d="m -332.0593,-563.69153 c 9.6702,-11.4425 29.421,-28.61331 61.0965,-28.99191 35.4815,-0.42429 57.4602,28.46462 66.3501,43.19666 -13.4886,-54.16904 -42.7858,-90.18339 -89.8432,-73.76108 l 0,0 0,0 0,0 c -20.44,7.12232 -33.2547,30.6623 -37.6016,59.55633 z"
         style="fill:#d9dadb;fill-rule:evenodd;stroke:none"
         id="path4758"
         inkscape:connector-curvature="0" />
      <path
         d="m -314.5484,-236.28316 c 8.2364,1.84969 20.2234,8.65056 35.1969,28.48024 29.8982,39.59275 62.7027,65.06188 114.2631,68.37599 56.8122,3.65165 114.3855,-36.79565 143.5173,-61.24583 18.1413,-15.22642 50.91,-42.74839 79.2956,-58.61089 12.8704,-7.19243 27.778,-10.70227 34.4617,-12.01292 -2.837,-15.26322 -5.3808,-29.24481 -7.8283,-41.45029 -8.0806,4.18674 -22.1842,10.06385 -43.7073,26.73909 -15.6451,12.19412 -44.5878,37.53562 -66.7714,52.88766 -14.4842,10.02811 -30.3384,18.69915 -45.9352,25.48867 -22.4454,9.77411 -44.3569,15.65467 -60.8705,16.08805 -59.197,3.13012 -87.3561,-11.53097 -114.3466,-39.65818 -11.3204,-11.79792 -19.896,-24.72334 -34.1768,-40.49427 -6.3265,-6.9869 -15.0823,-16.26928 -24.0083,-22.6482 -0.083,2.79194 -3.3672,26.0394 -9.0902,58.06088 z"
         style="fill:#d9dadb;fill-rule:evenodd;stroke:none"
         id="path4760"
         inkscape:connector-curvature="0" />
      <path
         d="m -522.1571,106.5828 c -75.1935,81.69361 -100.3801,195.17525 -88.8088,290.31772 7.1199,58.75114 38.749,107.3289 75.334,149.84309 6.4824,7.53345 12.6732,15.07098 19.3892,22.25179 1.2635,1.35051 -30.4203,-22.33656 -35.9825,-27.1502 -123.389,-106.77359 -96.1243,-318.7641 26.9301,-437.36258 4.0406,-3.89381 8.7967,-4.04871 3.138,2.10019 z"
         style="fill:#6e6f70;fill-rule:evenodd;stroke:none"
         id="path4762"
         inkscape:connector-curvature="0" />
      <path
         d="m -180.5557,-456.53736 c -3.1604,-4.70332 -16.3181,-2.27868 -22.6389,0 -6.2475,2.35203 -11.0983,9.1875 -8.5244,13.8183 1.3221,2.35169 4.1884,3.52844 6.3931,3.08671 3.3808,-0.73502 6.9828,-4.48371 11.5389,-7.93777 4.8512,-3.7488 11.9063,-7.05535 13.2288,-8.96724 l 0,0 z"
         style="fill:#191919;fill-opacity:1;fill-rule:evenodd;stroke:none"
         id="path4764"
         inkscape:connector-curvature="0" />
      <path
         d="m 291.2883,86.841534 c 75.8068,79.368156 102.5091,164.488906 100.0991,252.202966 -1.1177,40.70309 -18.172,92.19641 -26.917,124.19083 -17.4544,63.86431 14.7841,16.75715 22.5608,-4.4603 13.3328,-36.37548 22.5135,-94.24512 21.0313,-136.84329 -3.5546,-102.20103 -49.4851,-180.92463 -114.9452,-235.683541 -3.2536,-2.720683 -6.3394,-4.129886 -1.829,0.593335 z"
         style="fill:#6e6f70;fill-rule:evenodd;stroke:none"
         id="path4766"
         inkscape:connector-curvature="0" />
      <path
         d="m 552.041,533.16799 c 1.2898,-2.42112 3.9014,-12.13082 4.0986,-14.10264 4.9336,-49.1717 -90.7209,-60.23602 -165.1743,-57.7526 -33.7846,1.12667 -60.1137,5.11116 -75.8376,9.75342 -27.394,8.08736 -40.8819,26.63967 -43.9169,49.84947 -6.1441,46.98646 7.7985,146.24538 54.4188,167.96164 48.2106,22.45666 121.2199,-9.59785 164.3174,-57.9491 29.1845,-32.74038 47.7688,-70.85935 62.094,-97.76019 z"
         style="fill:#191919;fill-opacity:1;fill-rule:evenodd;stroke:none"
         id="path4768"
         inkscape:connector-curvature="0" />
      <path
         d="m 290.2087,509.3559 c -11.9956,14.34694 64.4497,3.48434 116.1717,13.23813 28.8326,5.4375 52.4673,21.75748 70.7481,22.35006 53.543,1.73583 61.1698,-28.74623 18.9818,-51.99279 -53.6569,-29.56613 -178.7715,-16.04412 -205.9016,16.4046 z"
         style="fill:#6e6f70;fill-rule:evenodd;stroke:none"
         id="path4770"
         inkscape:connector-curvature="0" />
      <path
         d="m 11.5412,-824.49461 c 8.2836,25.96613 -9.285,41.20288 12.4723,52.74473 15.0155,7.96488 31.0203,-4.63221 58.4729,0.0797 48.3054,8.29106 80.8859,35.94285 69.2231,-7.69537 -4.3683,-16.34365 -22.1129,-38.82105 -42.3993,-56.728 -36.6575,-32.35578 -86.3938,-55.33212 -113.9094,-39.65904 -14.2921,8.14073 6.9408,22.42134 16.1404,51.25791 z"
         style="fill:#6e6f70;fill-rule:evenodd;stroke:none"
         id="path4772"
         inkscape:connector-curvature="0" />
      <path
         d="m 213.7155,-260.10616 c -0.7888,-6.78871 -8.2669,-15.70292 -15.8506,-22.94642 -13.7042,-13.08764 -32.2986,-22.38068 -42.5838,-16.04184 -18.9506,11.678 1.9451,65.60247 17.2299,71.06714 24.5283,8.76872 43.3701,-13.42817 41.2045,-32.07888 z"
         style="fill:#6e6f70;fill-rule:evenodd;stroke:none"
         id="path4774"
         inkscape:connector-curvature="0" />
      <path
         d="m -240.5689,-501.97476 c -2.2505,-0.76791 -0.272,-8.00434 -9.9612,-19.13937 -9.6904,-11.13539 -18.0783,-11.45411 -15.8394,-19.38546 2.2382,-7.93077 16.0097,0.0224 23.8384,13.5415 7.8289,13.51921 4.2132,25.75082 1.9622,24.98333 z"
         style="fill:#6e6f70;fill-rule:evenodd;stroke:none"
         id="path4776"
         inkscape:connector-curvature="0" />
      <path
         d="m 24.8484,-500.26754 c -2.7678,-1.06237 0.038,-9.98376 -11.5089,-24.31089 -11.5482,-14.32717 -22.98,-15.01364 -19.8189,-24.78853 3.1614,-9.77468 20.9404,0.67614 30.0578,17.8851 9.1177,17.20914 4.0371,32.27626 1.27,31.21432 z"
         style="fill:#6e6f70;fill-rule:evenodd;stroke:none"
         id="path4778"
         inkscape:connector-curvature="0" />
    </g>
  </g>
</svg>
